<svg width="1920" height="1080" viewBox="0 0 1920 1080" fill="none" xmlns="http://www.w3.org/2000/svg">
<rect width="1920" height="1080" fill="#1A1E26"/>
<path d="M903.02 599.703L900.896 593.979H890.528L888.404 599.703H883.292L893.408 574.503H898.016L908.132 599.703H903.02ZM892.04 589.803H899.384L895.712 579.903L892.04 589.803ZM910.194 606.903V583.071H914.586V585.411H914.658C915.81 583.491 917.658 582.531 920.202 582.531C922.482 582.531 924.378 583.323 925.89 584.907C927.426 586.491 928.194 588.651 928.194 591.387C928.194 594.123 927.426 596.283 925.89 597.867C924.378 599.451 922.482 600.243 920.202 600.243C917.658 600.243 915.81 599.283 914.658 597.363H914.586V606.903H910.194ZM915.81 594.771C916.65 595.635 917.742 596.067 919.086 596.067C920.43 596.067 921.51 595.635 922.326 594.771C923.166 593.907 923.586 592.779 923.586 591.387C923.586 589.995 923.166 588.867 922.326 588.003C921.51 587.139 920.43 586.707 919.086 586.707C917.742 586.707 916.65 587.139 915.81 588.003C914.994 588.867 914.586 589.995 914.586 591.387C914.586 592.779 914.994 593.907 915.81 594.771ZM931.077 606.903V583.071H935.469V585.411H935.541C936.693 583.491 938.541 582.531 941.085 582.531C943.365 582.531 945.261 583.323 946.773 584.907C948.309 586.491 949.077 588.651 949.077 591.387C949.077 594.123 948.309 596.283 946.773 597.867C945.261 599.451 943.365 600.243 941.085 600.243C938.541 600.243 936.693 599.283 935.541 597.363H935.469V606.903H931.077ZM936.693 594.771C937.533 595.635 938.625 596.067 939.969 596.067C941.313 596.067 942.393 595.635 943.209 594.771C944.049 593.907 944.469 592.779 944.469 591.387C944.469 589.995 944.049 588.867 943.209 588.003C942.393 587.139 941.313 586.707 939.969 586.707C938.625 586.707 937.533 587.139 936.693 588.003C935.877 588.867 935.469 589.995 935.469 591.387C935.469 592.779 935.877 593.907 936.693 594.771ZM959.592 582.531C962.136 582.531 964.116 583.311 965.532 584.871C966.948 586.407 967.656 588.591 967.656 591.423V592.287H955.236C955.356 593.559 955.836 594.555 956.676 595.275C957.54 595.971 958.62 596.319 959.916 596.319C961.716 596.319 963.372 595.563 964.884 594.051L967.116 597.255C964.956 599.247 962.556 600.243 959.916 600.243C957.204 600.243 955.032 599.439 953.4 597.831C951.768 596.223 950.952 594.087 950.952 591.423C950.952 588.759 951.744 586.611 953.328 584.979C954.912 583.347 957 582.531 959.592 582.531ZM959.376 586.095C957.048 586.095 955.704 587.211 955.344 589.443H963.192C963.12 588.387 962.736 587.571 962.04 586.995C961.368 586.395 960.48 586.095 959.376 586.095ZM980.316 582.531C982.236 582.531 983.76 583.107 984.888 584.259C986.016 585.387 986.58 587.115 986.58 589.443V599.703H982.152V590.487C982.152 587.919 981.012 586.635 978.732 586.635C976.14 586.635 974.844 588.279 974.844 591.567V599.703H970.452V583.071H974.808V585.591H974.88C976.08 583.551 977.892 582.531 980.316 582.531ZM997.264 600.243C994.984 600.243 993.076 599.451 991.54 597.867C990.028 596.283 989.272 594.123 989.272 591.387C989.272 588.651 990.028 586.491 991.54 584.907C993.076 583.323 994.984 582.531 997.264 582.531C999.808 582.531 1001.66 583.491 1002.81 585.411H1002.88V574.503H1007.27V599.703H1002.88V597.363H1002.81C1001.66 599.283 999.808 600.243 997.264 600.243ZM995.104 594.771C995.944 595.635 997.036 596.067 998.38 596.067C999.724 596.067 1000.8 595.635 1001.62 594.771C1002.46 593.907 1002.88 592.779 1002.88 591.387C1002.88 589.995 1002.46 588.867 1001.62 588.003C1000.8 587.139 999.724 586.707 998.38 586.707C997.036 586.707 995.944 587.139 995.104 588.003C994.288 588.867 993.88 589.995 993.88 591.387C993.88 592.779 994.288 593.907 995.104 594.771ZM1016.09 574.719V579.579H1011.05V574.719H1016.09ZM1011.34 599.703V583.071H1015.77V599.703H1011.34ZM1031.26 599.703L1027.3 594.087L1023.34 599.703H1018.01L1024.64 590.955L1018.8 583.071H1024.17L1027.3 587.895L1030.47 583.071H1035.83L1030 590.955L1036.62 599.703H1031.26Z" fill="white"/>
<path opacity="0.6" d="M775.455 623.69V625.85H772.017V636.29H769.713V625.85H766.275V623.69H775.455ZM778.828 623.69V629.162H778.864C779.476 628.19 780.376 627.704 781.564 627.704C782.512 627.704 783.268 627.992 783.832 628.568C784.408 629.132 784.696 629.996 784.696 631.16V636.29H782.482V631.682C782.482 630.398 781.906 629.756 780.754 629.756C779.47 629.756 778.828 630.578 778.828 632.222V636.29H776.614V623.69H778.828ZM788.956 623.798V626.228H786.436V623.798H788.956ZM786.58 636.29V627.974H788.794V636.29H786.58ZM795.73 627.704C796.69 627.704 797.452 627.992 798.016 628.568C798.58 629.132 798.862 629.996 798.862 631.16V636.29H796.648V631.682C796.648 630.398 796.078 629.756 794.938 629.756C793.642 629.756 792.994 630.578 792.994 632.222V636.29H790.798V627.974H792.976V629.234H793.012C793.612 628.214 794.518 627.704 795.73 627.704ZM805.032 640.16C804.132 640.16 803.004 640.028 801.648 639.764L802.044 637.658C803.196 637.934 804.162 638.072 804.942 638.072C805.698 638.072 806.232 637.91 806.544 637.586C806.856 637.274 807.012 636.71 807.012 635.894V635.12H806.976C806.352 636.044 805.422 636.506 804.186 636.506C803.046 636.506 802.098 636.116 801.342 635.336C800.586 634.556 800.208 633.488 800.208 632.132C800.208 630.764 800.586 629.684 801.342 628.892C802.11 628.1 803.064 627.704 804.204 627.704C805.476 627.704 806.4 628.184 806.976 629.144H807.012V627.974H809.208V636.29C809.196 637.694 808.83 638.69 808.11 639.278C807.39 639.866 806.364 640.16 805.032 640.16ZM803.124 633.824C803.544 634.256 804.09 634.472 804.762 634.472C805.434 634.472 805.974 634.256 806.382 633.824C806.802 633.392 807.012 632.828 807.012 632.132C807.012 631.436 806.802 630.872 806.382 630.44C805.974 630.008 805.434 629.792 804.762 629.792C804.09 629.792 803.544 630.008 803.124 630.44C802.716 630.872 802.512 631.436 802.512 632.132C802.512 632.828 802.716 633.392 803.124 633.824ZM813.945 636.56C812.625 636.56 811.437 636.266 810.381 635.678L811.281 633.806C812.265 634.382 813.195 634.67 814.071 634.67C814.755 634.67 815.097 634.472 815.097 634.076C815.097 633.92 815.043 633.794 814.935 633.698C814.827 633.602 814.641 633.488 814.377 633.356L812.883 632.708C811.635 632.156 811.011 631.328 811.011 630.224C811.011 629.408 811.287 628.784 811.839 628.352C812.391 627.92 813.189 627.704 814.233 627.704C815.169 627.704 816.153 627.896 817.185 628.28L816.447 630.134C815.547 629.75 814.767 629.558 814.107 629.558C813.543 629.558 813.261 629.726 813.261 630.062C813.261 630.218 813.315 630.35 813.423 630.458C813.543 630.566 813.753 630.686 814.053 630.818L815.547 631.466C816.771 631.97 817.383 632.78 817.383 633.896C817.383 634.784 817.077 635.45 816.465 635.894C815.853 636.338 815.013 636.56 813.945 636.56ZM828.35 629.828H826.64V633.32C826.64 633.656 826.706 633.896 826.838 634.04C826.97 634.184 827.198 634.256 827.522 634.256H827.9V636.308H826.928C826.124 636.308 825.506 636.104 825.074 635.696C824.642 635.276 824.426 634.658 824.426 633.842V629.828H822.896V627.974H824.426V624.644H826.64V627.974H828.35V629.828ZM831.896 623.69V629.162H831.932C832.544 628.19 833.444 627.704 834.632 627.704C835.58 627.704 836.336 627.992 836.9 628.568C837.476 629.132 837.764 629.996 837.764 631.16V636.29H835.55V631.682C835.55 630.398 834.974 629.756 833.822 629.756C832.538 629.756 831.896 630.578 831.896 632.222V636.29H829.682V623.69H831.896ZM843.105 636.56C841.965 636.56 841.011 636.164 840.243 635.372C839.487 634.58 839.109 633.5 839.109 632.132C839.109 630.764 839.487 629.684 840.243 628.892C841.011 628.1 841.965 627.704 843.105 627.704C844.377 627.704 845.301 628.184 845.877 629.144H845.913V627.974H848.109V636.29H845.913V635.12H845.877C845.301 636.08 844.377 636.56 843.105 636.56ZM842.025 633.824C842.445 634.256 842.991 634.472 843.663 634.472C844.335 634.472 844.875 634.256 845.283 633.824C845.703 633.392 845.913 632.828 845.913 632.132C845.913 631.436 845.703 630.872 845.283 630.44C844.875 630.008 844.335 629.792 843.663 629.792C842.991 629.792 842.445 630.008 842.025 630.44C841.617 630.872 841.413 631.436 841.413 632.132C841.413 632.828 841.617 633.392 842.025 633.824ZM854.735 629.828H853.025V633.32C853.025 633.656 853.091 633.896 853.223 634.04C853.355 634.184 853.583 634.256 853.907 634.256H854.285V636.308H853.313C852.509 636.308 851.891 636.104 851.459 635.696C851.027 635.276 850.811 634.658 850.811 633.842V629.828H849.281V627.974H850.811V624.644H853.025V627.974H854.735V629.828ZM866.56 627.974H868.882L863.554 639.89H861.268L863.302 635.516L859.702 627.974H862.294L864.4 633.032L866.56 627.974ZM870.2 628.946C871.076 628.118 872.18 627.704 873.512 627.704C874.844 627.704 875.942 628.118 876.806 628.946C877.682 629.774 878.12 630.836 878.12 632.132C878.12 633.428 877.682 634.49 876.806 635.318C875.942 636.146 874.844 636.56 873.512 636.56C872.18 636.56 871.076 636.146 870.2 635.318C869.336 634.49 868.904 633.428 868.904 632.132C868.904 630.836 869.336 629.774 870.2 628.946ZM875.186 630.44C874.754 630.008 874.196 629.792 873.512 629.792C872.828 629.792 872.264 630.008 871.82 630.44C871.388 630.86 871.172 631.424 871.172 632.132C871.172 632.84 871.388 633.41 871.82 633.842C872.264 634.262 872.828 634.472 873.512 634.472C874.196 634.472 874.754 634.262 875.186 633.842C875.618 633.41 875.834 632.84 875.834 632.132C875.834 631.424 875.618 630.86 875.186 630.44ZM882.538 636.56C881.626 636.56 880.882 636.272 880.306 635.696C879.742 635.12 879.46 634.244 879.46 633.068V627.974H881.728V632.672C881.728 633.908 882.25 634.526 883.294 634.526C884.518 634.526 885.13 633.674 885.13 631.97V627.974H887.344V636.29H885.166V635.012H885.13C884.554 636.044 883.69 636.56 882.538 636.56ZM894.281 636.29V627.974H896.459V629.234H896.495C896.963 628.214 897.809 627.704 899.033 627.704C900.281 627.704 901.133 628.256 901.589 629.36H901.625C902.177 628.256 903.083 627.704 904.343 627.704C905.195 627.704 905.891 627.986 906.431 628.55C906.971 629.114 907.241 629.936 907.241 631.016V636.29H905.027V631.484C905.027 630.332 904.523 629.756 903.515 629.756C902.399 629.756 901.841 630.524 901.841 632.06V636.29H899.663V631.484C899.663 630.332 899.165 629.756 898.169 629.756C897.041 629.756 896.477 630.53 896.477 632.078V636.29H894.281ZM911.494 623.798V626.228H908.974V623.798H911.494ZM909.118 636.29V627.974H911.332V636.29H909.118ZM917.656 640.16C916.756 640.16 915.628 640.028 914.272 639.764L914.668 637.658C915.82 637.934 916.786 638.072 917.566 638.072C918.322 638.072 918.856 637.91 919.168 637.586C919.48 637.274 919.636 636.71 919.636 635.894V635.12H919.6C918.976 636.044 918.046 636.506 916.81 636.506C915.67 636.506 914.722 636.116 913.966 635.336C913.21 634.556 912.832 633.488 912.832 632.132C912.832 630.764 913.21 629.684 913.966 628.892C914.734 628.1 915.688 627.704 916.828 627.704C918.1 627.704 919.024 628.184 919.6 629.144H919.636V627.974H921.832V636.29C921.82 637.694 921.454 638.69 920.734 639.278C920.014 639.866 918.988 640.16 917.656 640.16ZM915.748 633.824C916.168 634.256 916.714 634.472 917.386 634.472C918.058 634.472 918.598 634.256 919.006 633.824C919.426 633.392 919.636 632.828 919.636 632.132C919.636 631.436 919.426 630.872 919.006 630.44C918.598 630.008 918.058 629.792 917.386 629.792C916.714 629.792 916.168 630.008 915.748 630.44C915.34 630.872 915.136 631.436 915.136 632.132C915.136 632.828 915.34 633.392 915.748 633.824ZM925.992 623.69V629.162H926.028C926.64 628.19 927.54 627.704 928.728 627.704C929.676 627.704 930.432 627.992 930.996 628.568C931.572 629.132 931.86 629.996 931.86 631.16V636.29H929.646V631.682C929.646 630.398 929.07 629.756 927.918 629.756C926.634 629.756 925.992 630.578 925.992 632.222V636.29H923.778V623.69H925.992ZM938.003 629.828H936.293V633.32C936.293 633.656 936.359 633.896 936.491 634.04C936.623 634.184 936.851 634.256 937.175 634.256H937.553V636.308H936.581C935.777 636.308 935.159 636.104 934.727 635.696C934.295 635.276 934.079 634.658 934.079 633.842V629.828H932.549V627.974H934.079V624.644H936.293V627.974H938.003V629.828ZM949.349 636.56C948.077 636.56 947.153 636.08 946.577 635.12H946.541V636.29H944.327V623.69H946.541V629.144H946.577C947.153 628.184 948.077 627.704 949.349 627.704C950.489 627.704 951.437 628.1 952.193 628.892C952.961 629.684 953.345 630.764 953.345 632.132C953.345 633.5 952.961 634.58 952.193 635.372C951.437 636.164 950.489 636.56 949.349 636.56ZM947.153 633.824C947.573 634.256 948.119 634.472 948.791 634.472C949.463 634.472 950.003 634.256 950.411 633.824C950.831 633.392 951.041 632.828 951.041 632.132C951.041 631.436 950.831 630.872 950.411 630.44C950.003 630.008 949.463 629.792 948.791 629.792C948.119 629.792 947.573 630.008 947.153 630.44C946.745 630.872 946.541 631.436 946.541 632.132C946.541 632.828 946.745 633.392 947.153 633.824ZM958.601 627.704C959.873 627.704 960.863 628.094 961.571 628.874C962.279 629.642 962.633 630.734 962.633 632.15V632.582H956.423C956.483 633.218 956.723 633.716 957.143 634.076C957.575 634.424 958.115 634.598 958.763 634.598C959.663 634.598 960.491 634.22 961.247 633.464L962.363 635.066C961.283 636.062 960.083 636.56 958.763 636.56C957.407 636.56 956.321 636.158 955.505 635.354C954.689 634.55 954.281 633.482 954.281 632.15C954.281 630.818 954.677 629.744 955.469 628.928C956.261 628.112 957.305 627.704 958.601 627.704ZM958.493 629.486C957.329 629.486 956.657 630.044 956.477 631.16H960.401C960.365 630.632 960.173 630.224 959.825 629.936C959.489 629.636 959.045 629.486 958.493 629.486ZM978.934 627.974H981.238L978.34 636.29H976.378L974.47 630.854L972.562 636.29H970.6L967.702 627.974H970.006L971.608 633.428L973.426 627.974H975.514L977.332 633.464L978.934 627.974ZM982.559 628.946C983.435 628.118 984.539 627.704 985.871 627.704C987.203 627.704 988.301 628.118 989.165 628.946C990.041 629.774 990.479 630.836 990.479 632.132C990.479 633.428 990.041 634.49 989.165 635.318C988.301 636.146 987.203 636.56 985.871 636.56C984.539 636.56 983.435 636.146 982.559 635.318C981.695 634.49 981.263 633.428 981.263 632.132C981.263 630.836 981.695 629.774 982.559 628.946ZM987.545 630.44C987.113 630.008 986.555 629.792 985.871 629.792C985.187 629.792 984.623 630.008 984.179 630.44C983.747 630.86 983.531 631.424 983.531 632.132C983.531 632.84 983.747 633.41 984.179 633.842C984.623 634.262 985.187 634.472 985.871 634.472C986.555 634.472 987.113 634.262 987.545 633.842C987.977 633.41 988.193 632.84 988.193 632.132C988.193 631.424 987.977 630.86 987.545 630.44ZM996.842 627.704C997.802 627.704 998.564 627.992 999.128 628.568C999.692 629.132 999.974 629.996 999.974 631.16V636.29H997.76V631.682C997.76 630.398 997.19 629.756 996.05 629.756C994.754 629.756 994.106 630.578 994.106 632.222V636.29H991.91V627.974H994.088V629.234H994.124C994.724 628.214 995.63 627.704 996.842 627.704ZM1005.32 636.56C1004.18 636.56 1003.22 636.164 1002.45 635.372C1001.7 634.58 1001.32 633.5 1001.32 632.132C1001.32 630.764 1001.7 629.684 1002.45 628.892C1003.22 628.1 1004.18 627.704 1005.32 627.704C1006.59 627.704 1007.51 628.184 1008.09 629.144H1008.12V623.69H1010.32V636.29H1008.12V635.12H1008.09C1007.51 636.08 1006.59 636.56 1005.32 636.56ZM1004.24 633.824C1004.66 634.256 1005.2 634.472 1005.87 634.472C1006.55 634.472 1007.09 634.256 1007.49 633.824C1007.91 633.392 1008.12 632.828 1008.12 632.132C1008.12 631.436 1007.91 630.872 1007.49 630.44C1007.09 630.008 1006.55 629.792 1005.87 629.792C1005.2 629.792 1004.66 630.008 1004.24 630.44C1003.83 630.872 1003.62 631.436 1003.62 632.132C1003.62 632.828 1003.83 633.392 1004.24 633.824ZM1016.13 627.704C1017.41 627.704 1018.4 628.094 1019.1 628.874C1019.81 629.642 1020.17 630.734 1020.17 632.15V632.582H1013.96C1014.02 633.218 1014.26 633.716 1014.68 634.076C1015.11 634.424 1015.65 634.598 1016.3 634.598C1017.2 634.598 1018.02 634.22 1018.78 633.464L1019.9 635.066C1018.82 636.062 1017.62 636.56 1016.3 636.56C1014.94 636.56 1013.85 636.158 1013.04 635.354C1012.22 634.55 1011.81 633.482 1011.81 632.15C1011.81 630.818 1012.21 629.744 1013 628.928C1013.79 628.112 1014.84 627.704 1016.13 627.704ZM1016.03 629.486C1014.86 629.486 1014.19 630.044 1014.01 631.16H1017.93C1017.9 630.632 1017.71 630.224 1017.36 629.936C1017.02 629.636 1016.58 629.486 1016.03 629.486ZM1026.62 627.722V630.098H1026.37C1025.47 630.098 1024.81 630.314 1024.39 630.746C1023.97 631.178 1023.76 631.892 1023.76 632.888V636.29H1021.56V627.974H1023.74V629.738H1023.78C1024.22 628.394 1025.14 627.722 1026.53 627.722H1026.62ZM1030.18 623.798V626.228H1027.66V623.798H1030.18ZM1027.81 636.29V627.974H1030.02V636.29H1027.81ZM1036.96 627.704C1037.92 627.704 1038.68 627.992 1039.24 628.568C1039.81 629.132 1040.09 629.996 1040.09 631.16V636.29H1037.87V631.682C1037.87 630.398 1037.3 629.756 1036.16 629.756C1034.87 629.756 1034.22 630.578 1034.22 632.222V636.29H1032.02V627.974H1034.2V629.234H1034.24C1034.84 628.214 1035.74 627.704 1036.96 627.704ZM1046.26 640.16C1045.36 640.16 1044.23 640.028 1042.87 639.764L1043.27 637.658C1044.42 637.934 1045.39 638.072 1046.17 638.072C1046.92 638.072 1047.46 637.91 1047.77 637.586C1048.08 637.274 1048.24 636.71 1048.24 635.894V635.12H1048.2C1047.58 636.044 1046.65 636.506 1045.41 636.506C1044.27 636.506 1043.32 636.116 1042.57 635.336C1041.81 634.556 1041.43 633.488 1041.43 632.132C1041.43 630.764 1041.81 629.684 1042.57 628.892C1043.34 628.1 1044.29 627.704 1045.43 627.704C1046.7 627.704 1047.63 628.184 1048.2 629.144H1048.24V627.974H1050.43V636.29C1050.42 637.694 1050.06 638.69 1049.34 639.278C1048.62 639.866 1047.59 640.16 1046.26 640.16ZM1044.35 633.824C1044.77 634.256 1045.32 634.472 1045.99 634.472C1046.66 634.472 1047.2 634.256 1047.61 633.824C1048.03 633.392 1048.24 632.828 1048.24 632.132C1048.24 631.436 1048.03 630.872 1047.61 630.44C1047.2 630.008 1046.66 629.792 1045.99 629.792C1045.32 629.792 1044.77 630.008 1044.35 630.44C1043.94 630.872 1043.74 631.436 1043.74 632.132C1043.74 632.828 1043.94 633.392 1044.35 633.824ZM1060.07 622.304L1061.67 623.366C1060.86 624.53 1060.23 625.724 1059.8 626.948C1059.37 628.16 1059.15 629.528 1059.15 631.052C1059.15 633.956 1059.98 636.638 1061.64 639.098L1060.04 640.16C1059.11 638.768 1058.4 637.364 1057.89 635.948C1057.4 634.52 1057.16 632.888 1057.16 631.052C1057.16 629.252 1057.4 627.68 1057.89 626.336C1058.4 624.992 1059.12 623.648 1060.07 622.304ZM1066.04 623.798V626.228H1063.52V623.798H1066.04ZM1062.28 637.91H1062.66C1063.02 637.91 1063.27 637.82 1063.43 637.64C1063.59 637.472 1063.66 637.196 1063.66 636.812V627.974H1065.88V636.902C1065.88 638.93 1064.92 639.944 1063 639.944H1062.28V637.91ZM1070.87 636.56C1069.96 636.56 1069.21 636.272 1068.64 635.696C1068.07 635.12 1067.79 634.244 1067.79 633.068V627.974H1070.06V632.672C1070.06 633.908 1070.58 634.526 1071.63 634.526C1072.85 634.526 1073.46 633.674 1073.46 631.97V627.974H1075.68V636.29H1073.5V635.012H1073.46C1072.89 636.044 1072.02 636.56 1070.87 636.56ZM1080.45 636.56C1079.13 636.56 1077.94 636.266 1076.88 635.678L1077.78 633.806C1078.77 634.382 1079.7 634.67 1080.57 634.67C1081.26 634.67 1081.6 634.472 1081.6 634.076C1081.6 633.92 1081.54 633.794 1081.44 633.698C1081.33 633.602 1081.14 633.488 1080.88 633.356L1079.38 632.708C1078.14 632.156 1077.51 631.328 1077.51 630.224C1077.51 629.408 1077.79 628.784 1078.34 628.352C1078.89 627.92 1079.69 627.704 1080.73 627.704C1081.67 627.704 1082.65 627.896 1083.69 628.28L1082.95 630.134C1082.05 629.75 1081.27 629.558 1080.61 629.558C1080.04 629.558 1079.76 629.726 1079.76 630.062C1079.76 630.218 1079.82 630.35 1079.92 630.458C1080.04 630.566 1080.25 630.686 1080.55 630.818L1082.05 631.466C1083.27 631.97 1083.88 632.78 1083.88 633.896C1083.88 634.784 1083.58 635.45 1082.97 635.894C1082.35 636.338 1081.51 636.56 1080.45 636.56ZM1089.86 629.828H1088.15V633.32C1088.15 633.656 1088.22 633.896 1088.35 634.04C1088.48 634.184 1088.71 634.256 1089.03 634.256H1089.41V636.308H1088.44C1087.63 636.308 1087.02 636.104 1086.58 635.696C1086.15 635.276 1085.94 634.658 1085.94 633.842V629.828H1084.41V627.974H1085.94V624.644H1088.15V627.974H1089.86V629.828ZM1098.56 623.798V626.228H1096.04V623.798H1098.56ZM1096.18 636.29V627.974H1098.4V636.29H1096.18ZM1105.33 627.704C1106.29 627.704 1107.06 627.992 1107.62 628.568C1108.18 629.132 1108.47 629.996 1108.47 631.16V636.29H1106.25V631.682C1106.25 630.398 1105.68 629.756 1104.54 629.756C1103.25 629.756 1102.6 630.578 1102.6 632.222V636.29H1100.4V627.974H1102.58V629.234H1102.62C1103.22 628.214 1104.12 627.704 1105.33 627.704ZM1119.39 636.56C1118.04 636.56 1116.93 636.152 1116.08 635.336C1115.23 634.52 1114.8 633.452 1114.8 632.132C1114.8 630.812 1115.23 629.744 1116.08 628.928C1116.93 628.112 1118.04 627.704 1119.39 627.704C1120.45 627.704 1121.42 627.98 1122.31 628.532L1121.36 630.35C1120.74 629.966 1120.1 629.774 1119.43 629.774C1118.75 629.774 1118.18 629.996 1117.74 630.44C1117.29 630.872 1117.07 631.436 1117.07 632.132C1117.07 632.828 1117.29 633.398 1117.74 633.842C1118.18 634.274 1118.75 634.49 1119.43 634.49C1120.1 634.49 1120.74 634.298 1121.36 633.914L1122.31 635.732C1121.42 636.284 1120.45 636.56 1119.39 636.56ZM1126.55 636.56C1125.41 636.56 1124.46 636.164 1123.69 635.372C1122.93 634.58 1122.56 633.5 1122.56 632.132C1122.56 630.764 1122.93 629.684 1123.69 628.892C1124.46 628.1 1125.41 627.704 1126.55 627.704C1127.82 627.704 1128.75 628.184 1129.32 629.144H1129.36V627.974H1131.56V636.29H1129.36V635.12H1129.32C1128.75 636.08 1127.82 636.56 1126.55 636.56ZM1125.47 633.824C1125.89 634.256 1126.44 634.472 1127.11 634.472C1127.78 634.472 1128.32 634.256 1128.73 633.824C1129.15 633.392 1129.36 632.828 1129.36 632.132C1129.36 631.436 1129.15 630.872 1128.73 630.44C1128.32 630.008 1127.78 629.792 1127.11 629.792C1126.44 629.792 1125.89 630.008 1125.47 630.44C1125.06 630.872 1124.86 631.436 1124.86 632.132C1124.86 632.828 1125.06 633.392 1125.47 633.824ZM1136.29 636.56C1134.97 636.56 1133.78 636.266 1132.73 635.678L1133.63 633.806C1134.61 634.382 1135.54 634.67 1136.42 634.67C1137.1 634.67 1137.44 634.472 1137.44 634.076C1137.44 633.92 1137.39 633.794 1137.28 633.698C1137.17 633.602 1136.99 633.488 1136.72 633.356L1135.23 632.708C1133.98 632.156 1133.36 631.328 1133.36 630.224C1133.36 629.408 1133.63 628.784 1134.19 628.352C1134.74 627.92 1135.54 627.704 1136.58 627.704C1137.52 627.704 1138.5 627.896 1139.53 628.28L1138.79 630.134C1137.89 629.75 1137.11 629.558 1136.45 629.558C1135.89 629.558 1135.61 629.726 1135.61 630.062C1135.61 630.218 1135.66 630.35 1135.77 630.458C1135.89 630.566 1136.1 630.686 1136.4 630.818L1137.89 631.466C1139.12 631.97 1139.73 632.78 1139.73 633.896C1139.73 634.784 1139.42 635.45 1138.81 635.894C1138.2 636.338 1137.36 636.56 1136.29 636.56ZM1144.81 627.704C1146.08 627.704 1147.07 628.094 1147.78 628.874C1148.48 629.642 1148.84 630.734 1148.84 632.15V632.582H1142.63C1142.69 633.218 1142.93 633.716 1143.35 634.076C1143.78 634.424 1144.32 634.598 1144.97 634.598C1145.87 634.598 1146.7 634.22 1147.45 633.464L1148.57 635.066C1147.49 636.062 1146.29 636.56 1144.97 636.56C1143.61 636.56 1142.53 636.158 1141.71 635.354C1140.89 634.55 1140.49 633.482 1140.49 632.15C1140.49 630.818 1140.88 629.744 1141.67 628.928C1142.47 628.112 1143.51 627.704 1144.81 627.704ZM1144.7 629.486C1143.53 629.486 1142.86 630.044 1142.68 631.16H1146.61C1146.57 630.632 1146.38 630.224 1146.03 629.936C1145.69 629.636 1145.25 629.486 1144.7 629.486ZM1150.19 640.16L1148.59 639.098C1150.23 636.65 1151.05 633.968 1151.05 631.052C1151.05 629.516 1150.84 628.142 1150.41 626.93C1149.97 625.706 1149.35 624.518 1148.53 623.366L1150.15 622.304C1151.09 623.66 1151.8 625.01 1152.3 626.354C1152.8 627.686 1153.05 629.252 1153.05 631.052C1153.05 632.9 1152.8 634.532 1152.3 635.948C1151.8 637.364 1151.1 638.768 1150.19 640.16Z" fill="#FEFEFE"/>
<line opacity="0.5" x1="1920" y1="530.5" y2="530.5" stroke="white"/>
</svg>
