<svg width="1920" height="1080" viewBox="0 0 1920 1080" fill="none" xmlns="http://www.w3.org/2000/svg">
<rect width="1920" height="1080" fill="#1A1E26"/>
<path d="M214.312 290.4V318.192H228.328V324H208.168V290.4H214.312ZM237.508 290.688V297.168H230.788V290.688H237.508ZM231.172 324V301.824H237.076V324H231.172ZM253.94 334.32C251.54 334.32 248.532 333.968 244.916 333.264L245.972 327.648C249.044 328.384 251.62 328.752 253.7 328.752C255.716 328.752 257.14 328.32 257.972 327.456C258.804 326.624 259.22 325.12 259.22 322.944V320.88H259.124C257.46 323.344 254.98 324.576 251.684 324.576C248.644 324.576 246.116 323.536 244.1 321.456C242.084 319.376 241.076 316.528 241.076 312.912C241.076 309.264 242.084 306.384 244.1 304.272C246.148 302.16 248.692 301.104 251.732 301.104C255.124 301.104 257.588 302.384 259.124 304.944H259.22V301.824H265.076V324C265.044 327.744 264.068 330.4 262.148 331.968C260.228 333.536 257.492 334.32 253.94 334.32ZM248.852 317.424C249.972 318.576 251.428 319.152 253.22 319.152C255.012 319.152 256.452 318.576 257.54 317.424C258.66 316.272 259.22 314.768 259.22 312.912C259.22 311.056 258.66 309.552 257.54 308.4C256.452 307.248 255.012 306.672 253.22 306.672C251.428 306.672 249.972 307.248 248.852 308.4C247.764 309.552 247.22 311.056 247.22 312.912C247.22 314.768 247.764 316.272 248.852 317.424ZM276.17 290.4V304.992H276.266C277.898 302.4 280.298 301.104 283.466 301.104C285.994 301.104 288.01 301.872 289.514 303.408C291.05 304.912 291.818 307.216 291.818 310.32V324H285.914V311.712C285.914 308.288 284.378 306.576 281.306 306.576C277.882 306.576 276.17 308.768 276.17 313.152V324H270.266V290.4H276.17ZM308.199 306.768H303.639V316.08C303.639 316.976 303.815 317.616 304.167 318C304.519 318.384 305.127 318.576 305.991 318.576H306.999V324.048H304.407C302.263 324.048 300.615 323.504 299.463 322.416C298.311 321.296 297.735 319.648 297.735 317.472V306.768H293.655V301.824H297.735V292.944H303.639V301.824H308.199V306.768ZM334.279 324.72C331.239 324.72 328.695 323.664 326.647 321.552C324.631 319.44 323.623 316.56 323.623 312.912C323.623 309.264 324.631 306.384 326.647 304.272C328.695 302.16 331.239 301.104 334.279 301.104C337.671 301.104 340.135 302.384 341.671 304.944H341.767V301.824H347.623V324H341.767V320.88H341.671C340.135 323.44 337.671 324.72 334.279 324.72ZM331.399 317.424C332.519 318.576 333.975 319.152 335.767 319.152C337.559 319.152 338.999 318.576 340.087 317.424C341.207 316.272 341.767 314.768 341.767 312.912C341.767 311.056 341.207 309.552 340.087 308.4C338.999 307.248 337.559 306.672 335.767 306.672C333.975 306.672 332.519 307.248 331.399 308.4C330.311 309.552 329.767 311.056 329.767 312.912C329.767 314.768 330.311 316.272 331.399 317.424ZM365.869 301.104C368.429 301.104 370.461 301.872 371.965 303.408C373.469 304.912 374.221 307.216 374.221 310.32V324H368.317V311.712C368.317 308.288 366.797 306.576 363.757 306.576C360.301 306.576 358.573 308.768 358.573 313.152V324H352.717V301.824H358.525V305.184H358.621C360.221 302.464 362.637 301.104 365.869 301.104ZM388.467 324.72C385.427 324.72 382.883 323.664 380.835 321.552C378.819 319.44 377.811 316.56 377.811 312.912C377.811 309.264 378.819 306.384 380.835 304.272C382.883 302.16 385.427 301.104 388.467 301.104C391.859 301.104 394.323 302.384 395.859 304.944H395.955V290.4H401.811V324H395.955V320.88H395.859C394.323 323.44 391.859 324.72 388.467 324.72ZM385.587 317.424C386.707 318.576 388.163 319.152 389.955 319.152C391.747 319.152 393.187 318.576 394.275 317.424C395.395 316.272 395.955 314.768 395.955 312.912C395.955 311.056 395.395 309.552 394.275 308.4C393.187 307.248 391.747 306.672 389.955 306.672C388.163 306.672 386.707 307.248 385.587 308.4C384.499 309.552 383.955 311.056 383.955 312.912C383.955 314.768 384.499 316.272 385.587 317.424ZM431.779 290.4C436.931 290.4 441.123 291.92 444.355 294.96C447.619 297.968 449.251 302.048 449.251 307.2C449.251 312.352 447.619 316.448 444.355 319.488C441.123 322.496 436.931 324 431.779 324H421.027V290.4H431.779ZM432.067 296.064H427.171V318.336H432.067C435.203 318.336 437.747 317.36 439.699 315.408C441.651 313.456 442.627 310.72 442.627 307.2C442.627 303.68 441.651 300.944 439.699 298.992C437.747 297.04 435.203 296.064 432.067 296.064ZM462.248 324.72C459.208 324.72 456.664 323.664 454.616 321.552C452.6 319.44 451.592 316.56 451.592 312.912C451.592 309.264 452.6 306.384 454.616 304.272C456.664 302.16 459.208 301.104 462.248 301.104C465.64 301.104 468.104 302.384 469.64 304.944H469.736V301.824H475.592V324H469.736V320.88H469.64C468.104 323.44 465.64 324.72 462.248 324.72ZM459.368 317.424C460.488 318.576 461.944 319.152 463.736 319.152C465.528 319.152 466.968 318.576 468.056 317.424C469.176 316.272 469.736 314.768 469.736 312.912C469.736 311.056 469.176 309.552 468.056 308.4C466.968 307.248 465.528 306.672 463.736 306.672C461.944 306.672 460.488 307.248 459.368 308.4C458.28 309.552 457.736 311.056 457.736 312.912C457.736 314.768 458.28 316.272 459.368 317.424ZM494.174 301.152V307.488H493.502C491.102 307.488 489.342 308.064 488.222 309.216C487.102 310.368 486.542 312.272 486.542 314.928V324H480.686V301.824H486.494V306.528H486.59C487.774 302.944 490.222 301.152 493.934 301.152H494.174ZM519.217 324H511.537L503.233 313.392V324H497.329V290.4H503.233V310.992L510.529 301.824H518.017L508.945 311.904L519.217 324ZM565.689 290.4L574.041 324H567.561L562.473 302.16H562.377L555.465 319.008H551.001L544.089 302.16H543.993L538.857 324H532.425L540.777 290.4H545.577L553.161 309.504H553.257L560.889 290.4H565.689ZM578.704 304.416C581.04 302.208 583.984 301.104 587.536 301.104C591.088 301.104 594.016 302.208 596.32 304.416C598.656 306.624 599.824 309.456 599.824 312.912C599.824 316.368 598.656 319.2 596.32 321.408C594.016 323.616 591.088 324.72 587.536 324.72C583.984 324.72 581.04 323.616 578.704 321.408C576.4 319.2 575.248 316.368 575.248 312.912C575.248 309.456 576.4 306.624 578.704 304.416ZM592 308.4C590.848 307.248 589.36 306.672 587.536 306.672C585.712 306.672 584.208 307.248 583.024 308.4C581.872 309.52 581.296 311.024 581.296 312.912C581.296 314.8 581.872 316.32 583.024 317.472C584.208 318.592 585.712 319.152 587.536 319.152C589.36 319.152 590.848 318.592 592 317.472C593.152 316.32 593.728 314.8 593.728 312.912C593.728 311.024 593.152 309.52 592 308.4ZM612.951 324.72C609.911 324.72 607.367 323.664 605.319 321.552C603.303 319.44 602.295 316.56 602.295 312.912C602.295 309.264 603.303 306.384 605.319 304.272C607.367 302.16 609.911 301.104 612.951 301.104C616.343 301.104 618.807 302.384 620.343 304.944H620.439V290.4H626.295V324H620.439V320.88H620.343C618.807 323.44 616.343 324.72 612.951 324.72ZM610.071 317.424C611.191 318.576 612.647 319.152 614.439 319.152C616.231 319.152 617.671 318.576 618.759 317.424C619.879 316.272 620.439 314.768 620.439 312.912C620.439 311.056 619.879 309.552 618.759 308.4C617.671 307.248 616.231 306.672 614.439 306.672C612.647 306.672 611.191 307.248 610.071 308.4C608.983 309.552 608.439 311.056 608.439 312.912C608.439 314.768 608.983 316.272 610.071 317.424ZM641.799 301.104C645.191 301.104 647.831 302.144 649.719 304.224C651.607 306.272 652.551 309.184 652.551 312.96V314.112H635.991C636.151 315.808 636.791 317.136 637.911 318.096C639.063 319.024 640.503 319.488 642.231 319.488C644.631 319.488 646.839 318.48 648.855 316.464L651.831 320.736C648.951 323.392 645.751 324.72 642.231 324.72C638.615 324.72 635.719 323.648 633.543 321.504C631.367 319.36 630.279 316.512 630.279 312.96C630.279 309.408 631.335 306.544 633.447 304.368C635.559 302.192 638.343 301.104 641.799 301.104ZM641.511 305.856C638.407 305.856 636.615 307.344 636.135 310.32H646.599C646.503 308.912 645.991 307.824 645.063 307.056C644.167 306.256 642.983 305.856 641.511 305.856ZM663.628 324.72C660.108 324.72 656.94 323.936 654.124 322.368L656.524 317.376C659.148 318.912 661.628 319.68 663.964 319.68C665.788 319.68 666.7 319.152 666.7 318.096C666.7 317.68 666.556 317.344 666.268 317.088C665.98 316.832 665.484 316.528 664.78 316.176L660.796 314.448C657.468 312.976 655.804 310.768 655.804 307.824C655.804 305.648 656.54 303.984 658.012 302.832C659.484 301.68 661.612 301.104 664.396 301.104C666.892 301.104 669.516 301.616 672.268 302.64L670.3 307.584C667.9 306.56 665.82 306.048 664.06 306.048C662.556 306.048 661.804 306.496 661.804 307.392C661.804 307.808 661.948 308.16 662.236 308.448C662.556 308.736 663.116 309.056 663.916 309.408L667.9 311.136C671.164 312.48 672.796 314.64 672.796 317.616C672.796 319.984 671.98 321.76 670.348 322.944C668.716 324.128 666.476 324.72 663.628 324.72Z" fill="white"/>
<path d="M216.196 371.4V379.14C216.196 380.7 215.734 381.948 214.81 382.884C213.898 383.808 212.674 384.27 211.138 384.27C209.602 384.27 208.372 383.808 207.448 382.884C206.536 381.948 206.08 380.7 206.08 379.14V371.4H208.042V379.086C208.042 380.082 208.33 380.874 208.906 381.462C209.494 382.038 210.238 382.326 211.138 382.326C212.038 382.326 212.776 382.038 213.352 381.462C213.94 380.874 214.234 380.082 214.234 379.086V371.4H216.196ZM220.924 384.27C219.676 384.27 218.548 383.976 217.54 383.388L218.332 381.822C219.244 382.35 220.126 382.614 220.978 382.614C221.842 382.614 222.274 382.356 222.274 381.84C222.274 381.504 221.98 381.192 221.392 380.904L219.88 380.166C218.716 379.614 218.134 378.816 218.134 377.772C218.134 377.016 218.392 376.434 218.908 376.026C219.436 375.618 220.162 375.414 221.086 375.414C222.046 375.414 223.006 375.63 223.966 376.062L223.246 377.592C222.406 377.232 221.668 377.052 221.032 377.052C220.348 377.052 220.006 377.262 220.006 377.682C220.006 377.886 220.072 378.06 220.204 378.204C220.348 378.348 220.6 378.504 220.96 378.672L222.508 379.41C223.612 379.926 224.164 380.706 224.164 381.75C224.164 382.578 223.87 383.208 223.282 383.64C222.706 384.06 221.92 384.27 220.924 384.27ZM227.661 371.58V373.74H225.501V371.58H227.661ZM225.699 384V375.684H227.463V384H225.699ZM234.223 375.414C235.183 375.414 235.945 375.696 236.509 376.26C237.073 376.812 237.355 377.688 237.355 378.888V384H235.591V379.194C235.591 377.85 234.955 377.178 233.683 377.178C232.207 377.178 231.469 378.126 231.469 380.022V384H229.705V375.684H231.469V376.944H231.505C232.081 375.924 232.987 375.414 234.223 375.414ZM243.62 387.87C242.792 387.87 241.724 387.744 240.416 387.492L240.758 385.782C241.886 386.034 242.84 386.16 243.62 386.16C244.424 386.16 244.982 385.986 245.294 385.638C245.618 385.302 245.78 384.678 245.78 383.766V382.776H245.744C245.168 383.772 244.232 384.27 242.936 384.27C241.796 384.27 240.836 383.868 240.056 383.064C239.276 382.26 238.886 381.186 238.886 379.842C238.886 378.498 239.276 377.424 240.056 376.62C240.836 375.816 241.796 375.414 242.936 375.414C244.232 375.414 245.168 375.912 245.744 376.908H245.78V375.684H247.544V384C247.52 384.792 247.406 385.452 247.202 385.98C246.998 386.508 246.71 386.904 246.338 387.168C245.966 387.432 245.564 387.612 245.132 387.708C244.712 387.816 244.208 387.87 243.62 387.87ZM241.46 381.804C241.928 382.296 242.546 382.542 243.314 382.542C244.082 382.542 244.7 382.296 245.168 381.804C245.636 381.3 245.87 380.646 245.87 379.842C245.87 379.038 245.636 378.39 245.168 377.898C244.7 377.394 244.082 377.142 243.314 377.142C242.546 377.142 241.928 377.394 241.46 377.898C240.992 378.39 240.758 379.038 240.758 379.842C240.758 380.646 240.992 381.3 241.46 381.804ZM261.23 384.27C259.226 384.27 257.6 383.664 256.352 382.452C255.104 381.24 254.48 379.656 254.48 377.7C254.48 375.744 255.104 374.16 256.352 372.948C257.6 371.736 259.226 371.13 261.23 371.13C262.91 371.13 264.392 371.592 265.676 372.516L264.524 374.154C263.504 373.41 262.382 373.038 261.158 373.038C259.814 373.038 258.704 373.464 257.828 374.316C256.964 375.168 256.532 376.296 256.532 377.7C256.532 379.104 256.964 380.232 257.828 381.084C258.704 381.936 259.814 382.362 261.158 382.362C262.382 382.362 263.504 381.99 264.524 381.246L265.676 382.884C264.392 383.808 262.91 384.27 261.23 384.27ZM270.799 371.13C271.915 371.13 273.025 371.412 274.129 371.976L273.283 373.758C272.419 373.266 271.573 373.02 270.745 373.02C269.785 373.02 269.305 373.38 269.305 374.1C269.305 374.58 269.635 375.078 270.295 375.594L272.545 377.322C273.217 377.838 273.709 378.366 274.021 378.906C274.333 379.434 274.489 380.046 274.489 380.742C274.489 381.87 274.123 382.74 273.391 383.352C272.659 383.964 271.681 384.27 270.457 384.27C268.969 384.27 267.613 383.88 266.389 383.1L267.235 381.336C268.423 382.02 269.503 382.362 270.475 382.362C271.123 382.362 271.615 382.224 271.951 381.948C272.299 381.66 272.473 381.294 272.473 380.85C272.473 380.514 272.365 380.202 272.149 379.914C271.945 379.626 271.609 379.296 271.141 378.924L268.999 377.232C267.847 376.332 267.271 375.312 267.271 374.172C267.271 373.236 267.583 372.498 268.207 371.958C268.831 371.406 269.695 371.13 270.799 371.13ZM279.799 371.13C280.915 371.13 282.025 371.412 283.129 371.976L282.283 373.758C281.419 373.266 280.573 373.02 279.745 373.02C278.785 373.02 278.305 373.38 278.305 374.1C278.305 374.58 278.635 375.078 279.295 375.594L281.545 377.322C282.217 377.838 282.709 378.366 283.021 378.906C283.333 379.434 283.489 380.046 283.489 380.742C283.489 381.87 283.123 382.74 282.391 383.352C281.659 383.964 280.681 384.27 279.457 384.27C277.969 384.27 276.613 383.88 275.389 383.1L276.235 381.336C277.423 382.02 278.503 382.362 279.475 382.362C280.123 382.362 280.615 382.224 280.951 381.948C281.299 381.66 281.473 381.294 281.473 380.85C281.473 380.514 281.365 380.202 281.149 379.914C280.945 379.626 280.609 379.296 280.141 378.924L277.999 377.232C276.847 376.332 276.271 375.312 276.271 374.172C276.271 373.236 276.583 372.498 277.207 371.958C277.831 371.406 278.695 371.13 279.799 371.13ZM290.42 387.6V375.684H292.184V376.908H292.22C292.796 375.912 293.732 375.414 295.028 375.414C296.168 375.414 297.128 375.816 297.908 376.62C298.688 377.424 299.078 378.498 299.078 379.842C299.078 381.186 298.688 382.26 297.908 383.064C297.128 383.868 296.168 384.27 295.028 384.27C293.732 384.27 292.796 383.772 292.22 382.776H292.184V387.6H290.42ZM292.796 381.804C293.264 382.296 293.882 382.542 294.65 382.542C295.418 382.542 296.036 382.296 296.504 381.804C296.972 381.3 297.206 380.646 297.206 379.842C297.206 379.038 296.972 378.39 296.504 377.898C296.036 377.394 295.418 377.142 294.65 377.142C293.882 377.142 293.264 377.394 292.796 377.898C292.328 378.39 292.094 379.038 292.094 379.842C292.094 380.646 292.328 381.3 292.796 381.804ZM305.383 375.432V377.502H305.113C304.237 377.502 303.577 377.73 303.133 378.186C302.689 378.63 302.467 379.338 302.467 380.31V384H300.703V375.684H302.467V377.502H302.503C302.707 376.866 303.043 376.362 303.511 375.99C303.991 375.618 304.573 375.432 305.257 375.432H305.383ZM306.943 376.674C307.807 375.834 308.893 375.414 310.201 375.414C311.509 375.414 312.595 375.834 313.459 376.674C314.323 377.514 314.755 378.57 314.755 379.842C314.755 381.114 314.323 382.17 313.459 383.01C312.595 383.85 311.509 384.27 310.201 384.27C308.893 384.27 307.807 383.85 306.943 383.01C306.079 382.17 305.647 381.114 305.647 379.842C305.647 378.57 306.079 377.514 306.943 376.674ZM312.127 377.88C311.635 377.388 310.993 377.142 310.201 377.142C309.409 377.142 308.761 377.388 308.257 377.88C307.765 378.372 307.519 379.026 307.519 379.842C307.519 380.658 307.765 381.312 308.257 381.804C308.761 382.296 309.409 382.542 310.201 382.542C310.993 382.542 311.635 382.296 312.127 381.804C312.631 381.312 312.883 380.658 312.883 379.842C312.883 379.026 312.631 378.372 312.127 377.88ZM316.383 387.6V375.684H318.147V376.908H318.183C318.759 375.912 319.695 375.414 320.991 375.414C322.131 375.414 323.091 375.816 323.871 376.62C324.651 377.424 325.041 378.498 325.041 379.842C325.041 381.186 324.651 382.26 323.871 383.064C323.091 383.868 322.131 384.27 320.991 384.27C319.695 384.27 318.759 383.772 318.183 382.776H318.147V387.6H316.383ZM318.759 381.804C319.227 382.296 319.845 382.542 320.613 382.542C321.381 382.542 321.999 382.296 322.467 381.804C322.935 381.3 323.169 380.646 323.169 379.842C323.169 379.038 322.935 378.39 322.467 377.898C321.999 377.394 321.381 377.142 320.613 377.142C319.845 377.142 319.227 377.394 318.759 377.898C318.291 378.39 318.057 379.038 318.057 379.842C318.057 380.646 318.291 381.3 318.759 381.804ZM330.374 375.414C331.622 375.414 332.594 375.816 333.29 376.62C333.998 377.412 334.352 378.486 334.352 379.842V380.13H327.908C327.944 380.862 328.19 381.456 328.646 381.912C329.114 382.356 329.708 382.578 330.428 382.578C331.412 382.578 332.264 382.092 332.984 381.12L334.226 382.29C333.266 383.61 332.012 384.27 330.464 384.27C329.144 384.27 328.088 383.868 327.296 383.064C326.516 382.248 326.126 381.18 326.126 379.86C326.126 378.564 326.504 377.502 327.26 376.674C328.028 375.834 329.066 375.414 330.374 375.414ZM330.266 377.034C329.654 377.034 329.15 377.19 328.754 377.502C328.358 377.814 328.106 378.264 327.998 378.852H332.444C332.408 378.276 332.192 377.832 331.796 377.52C331.412 377.196 330.902 377.034 330.266 377.034ZM340.645 375.432V377.502H340.375C339.499 377.502 338.839 377.73 338.395 378.186C337.951 378.63 337.729 379.338 337.729 380.31V384H335.965V375.684H337.729V377.502H337.765C337.969 376.866 338.305 376.362 338.773 375.99C339.253 375.618 339.835 375.432 340.519 375.432H340.645ZM346.028 377.178H344.336V381.534C344.336 382.11 344.624 382.398 345.2 382.398H345.632V384.018H344.822C344.09 384.018 343.532 383.832 343.148 383.46C342.764 383.088 342.572 382.56 342.572 381.876V377.178H341.096V375.684H342.572V372.354H344.336V375.684H346.028V377.178ZM349.513 371.58V373.74H347.353V371.58H349.513ZM347.551 384V375.684H349.315V384H347.551ZM355.265 375.414C356.513 375.414 357.485 375.816 358.181 376.62C358.889 377.412 359.243 378.486 359.243 379.842V380.13H352.799C352.835 380.862 353.081 381.456 353.537 381.912C354.005 382.356 354.599 382.578 355.319 382.578C356.303 382.578 357.155 382.092 357.875 381.12L359.117 382.29C358.157 383.61 356.903 384.27 355.355 384.27C354.035 384.27 352.979 383.868 352.187 383.064C351.407 382.248 351.017 381.18 351.017 379.86C351.017 378.564 351.395 377.502 352.151 376.674C352.919 375.834 353.957 375.414 355.265 375.414ZM355.157 377.034C354.545 377.034 354.041 377.19 353.645 377.502C353.249 377.814 352.997 378.264 352.889 378.852H357.335C357.299 378.276 357.083 377.832 356.687 377.52C356.303 377.196 355.793 377.034 355.157 377.034ZM363.429 384.27C362.181 384.27 361.053 383.976 360.045 383.388L360.837 381.822C361.749 382.35 362.631 382.614 363.483 382.614C364.347 382.614 364.779 382.356 364.779 381.84C364.779 381.504 364.485 381.192 363.897 380.904L362.385 380.166C361.221 379.614 360.639 378.816 360.639 377.772C360.639 377.016 360.897 376.434 361.413 376.026C361.941 375.618 362.667 375.414 363.591 375.414C364.551 375.414 365.511 375.63 366.471 376.062L365.751 377.592C364.911 377.232 364.173 377.052 363.537 377.052C362.853 377.052 362.511 377.262 362.511 377.682C362.511 377.886 362.577 378.06 362.709 378.204C362.853 378.348 363.105 378.504 363.465 378.672L365.013 379.41C366.117 379.926 366.669 380.706 366.669 381.75C366.669 382.578 366.375 383.208 365.787 383.64C365.211 384.06 364.425 384.27 363.429 384.27ZM370.185 381.858V384L368.907 386.574H368.025L368.979 384H368.043V381.858H370.185ZM381.606 377.178H379.914V381.534C379.914 382.11 380.202 382.398 380.778 382.398H381.21V384.018H380.4C379.668 384.018 379.11 383.832 378.726 383.46C378.342 383.088 378.15 382.56 378.15 381.876V377.178H376.674V375.684H378.15V372.354H379.914V375.684H381.606V377.178ZM384.893 371.4V376.944H384.929C385.505 375.924 386.411 375.414 387.647 375.414C388.595 375.414 389.351 375.696 389.915 376.26C390.491 376.812 390.779 377.688 390.779 378.888V384H389.015V379.194C389.015 377.85 388.379 377.178 387.107 377.178C385.631 377.178 384.893 378.126 384.893 380.022V384H383.129V371.4H384.893ZM396.556 375.414C397.804 375.414 398.776 375.816 399.472 376.62C400.18 377.412 400.534 378.486 400.534 379.842V380.13H394.09C394.126 380.862 394.372 381.456 394.828 381.912C395.296 382.356 395.89 382.578 396.61 382.578C397.594 382.578 398.446 382.092 399.166 381.12L400.408 382.29C399.448 383.61 398.194 384.27 396.646 384.27C395.326 384.27 394.27 383.868 393.478 383.064C392.698 382.248 392.308 381.18 392.308 379.86C392.308 378.564 392.686 377.502 393.442 376.674C394.21 375.834 395.248 375.414 396.556 375.414ZM396.448 377.034C395.836 377.034 395.332 377.19 394.936 377.502C394.54 377.814 394.288 378.264 394.18 378.852H398.626C398.59 378.276 398.374 377.832 397.978 377.52C397.594 377.196 397.084 377.034 396.448 377.034ZM409.455 371.4V384H407.547V371.4H409.455ZM416.045 371.4C417.893 371.4 419.411 371.97 420.599 373.11C421.787 374.25 422.381 375.78 422.381 377.7C422.381 379.62 421.787 381.15 420.599 382.29C419.411 383.43 417.893 384 416.045 384H411.977V371.4H416.045ZM416.027 373.164H413.849V382.236H416.027C417.299 382.236 418.331 381.84 419.123 381.048C419.927 380.256 420.329 379.14 420.329 377.7C420.329 376.26 419.927 375.144 419.123 374.352C418.331 373.56 417.299 373.164 416.027 373.164ZM432.521 384L431.315 380.868H425.807L424.601 384H422.549L427.697 371.4H429.425L434.573 384H432.521ZM426.473 379.14H430.649L428.561 373.74L426.473 379.14ZM441.588 377.034H447.564V377.79C447.564 378.618 447.432 379.416 447.168 380.184C446.904 380.94 446.52 381.63 446.016 382.254C445.512 382.866 444.846 383.358 444.018 383.73C443.19 384.09 442.26 384.27 441.228 384.27C439.296 384.27 437.7 383.67 436.44 382.47C435.192 381.27 434.568 379.692 434.568 377.736C434.568 375.792 435.186 374.208 436.422 372.984C437.658 371.748 439.266 371.13 441.246 371.13C443.142 371.13 444.756 371.694 446.088 372.822L444.81 374.388C443.826 373.488 442.608 373.038 441.156 373.038C439.8 373.038 438.702 373.482 437.862 374.37C437.034 375.246 436.62 376.362 436.62 377.718C436.62 379.074 437.046 380.19 437.898 381.066C438.762 381.93 439.89 382.362 441.282 382.362C442.566 382.362 443.574 382.002 444.306 381.282C445.05 380.562 445.464 379.734 445.548 378.798H441.588V377.034ZM451.186 371.4V384H449.278V371.4H451.186ZM454.949 372.984C456.197 371.748 457.763 371.13 459.647 371.13C461.531 371.13 463.097 371.748 464.345 372.984C465.593 374.208 466.217 375.78 466.217 377.7C466.217 379.62 465.593 381.198 464.345 382.434C463.097 383.658 461.531 384.27 459.647 384.27C457.763 384.27 456.197 383.658 454.949 382.434C453.701 381.198 453.077 379.62 453.077 377.7C453.077 375.78 453.701 374.208 454.949 372.984ZM462.905 374.352C462.065 373.476 460.979 373.038 459.647 373.038C458.315 373.038 457.229 373.476 456.389 374.352C455.549 375.228 455.129 376.344 455.129 377.7C455.129 379.056 455.549 380.172 456.389 381.048C457.229 381.924 458.315 382.362 459.647 382.362C460.979 382.362 462.065 381.924 462.905 381.048C463.745 380.172 464.165 379.056 464.165 377.7C464.165 376.344 463.745 375.228 462.905 374.352ZM475.718 384.27C474.47 384.27 473.342 383.976 472.334 383.388L473.126 381.822C474.038 382.35 474.92 382.614 475.772 382.614C476.636 382.614 477.068 382.356 477.068 381.84C477.068 381.504 476.774 381.192 476.186 380.904L474.674 380.166C473.51 379.614 472.928 378.816 472.928 377.772C472.928 377.016 473.186 376.434 473.702 376.026C474.23 375.618 474.956 375.414 475.88 375.414C476.84 375.414 477.8 375.63 478.76 376.062L478.04 377.592C477.2 377.232 476.462 377.052 475.826 377.052C475.142 377.052 474.8 377.262 474.8 377.682C474.8 377.886 474.866 378.06 474.998 378.204C475.142 378.348 475.394 378.504 475.754 378.672L477.302 379.41C478.406 379.926 478.958 380.706 478.958 381.75C478.958 382.578 478.664 383.208 478.076 383.64C477.5 384.06 476.714 384.27 475.718 384.27ZM482.456 371.58V373.74H480.296V371.58H482.456ZM480.494 384V375.684H482.258V384H480.494ZM488.01 384.27C486.87 384.27 485.91 383.868 485.13 383.064C484.35 382.26 483.96 381.186 483.96 379.842C483.96 378.498 484.35 377.424 485.13 376.62C485.91 375.816 486.87 375.414 488.01 375.414C489.306 375.414 490.242 375.912 490.818 376.908H490.854V371.4H492.618V384H490.854V382.776H490.818C490.242 383.772 489.306 384.27 488.01 384.27ZM486.534 381.804C487.002 382.296 487.62 382.542 488.388 382.542C489.156 382.542 489.774 382.296 490.242 381.804C490.71 381.3 490.944 380.646 490.944 379.842C490.944 379.038 490.71 378.39 490.242 377.898C489.774 377.394 489.156 377.142 488.388 377.142C487.62 377.142 487.002 377.394 486.534 377.898C486.066 378.39 485.832 379.038 485.832 379.842C485.832 380.646 486.066 381.3 486.534 381.804ZM498.579 375.414C499.827 375.414 500.799 375.816 501.495 376.62C502.203 377.412 502.557 378.486 502.557 379.842V380.13H496.113C496.149 380.862 496.395 381.456 496.851 381.912C497.319 382.356 497.913 382.578 498.633 382.578C499.617 382.578 500.469 382.092 501.189 381.12L502.431 382.29C501.471 383.61 500.217 384.27 498.669 384.27C497.349 384.27 496.293 383.868 495.501 383.064C494.721 382.248 494.331 381.18 494.331 379.86C494.331 378.564 494.709 377.502 495.465 376.674C496.233 375.834 497.271 375.414 498.579 375.414ZM498.471 377.034C497.859 377.034 497.355 377.19 496.959 377.502C496.563 377.814 496.311 378.264 496.203 378.852H500.649C500.613 378.276 500.397 377.832 500.001 377.52C499.617 377.196 499.107 377.034 498.471 377.034ZM508.868 384.27C507.572 384.27 506.636 383.772 506.06 382.776H506.024V384H504.26V371.4H506.024V376.908H506.06C506.636 375.912 507.572 375.414 508.868 375.414C510.008 375.414 510.968 375.816 511.748 376.62C512.528 377.424 512.918 378.498 512.918 379.842C512.918 381.186 512.528 382.26 511.748 383.064C510.968 383.868 510.008 384.27 508.868 384.27ZM506.636 381.804C507.104 382.296 507.722 382.542 508.49 382.542C509.258 382.542 509.876 382.296 510.344 381.804C510.812 381.3 511.046 380.646 511.046 379.842C511.046 379.038 510.812 378.39 510.344 377.898C509.876 377.394 509.258 377.142 508.49 377.142C507.722 377.142 507.104 377.394 506.636 377.898C506.168 378.39 505.934 379.038 505.934 379.842C505.934 380.646 506.168 381.3 506.636 381.804ZM518.051 384.27C516.911 384.27 515.951 383.868 515.171 383.064C514.391 382.26 514.001 381.186 514.001 379.842C514.001 378.498 514.391 377.424 515.171 376.62C515.951 375.816 516.911 375.414 518.051 375.414C519.347 375.414 520.283 375.912 520.859 376.908H520.895V375.684H522.659V384H520.895V382.776H520.859C520.283 383.772 519.347 384.27 518.051 384.27ZM516.575 381.804C517.043 382.296 517.661 382.542 518.429 382.542C519.197 382.542 519.815 382.296 520.283 381.804C520.751 381.3 520.985 380.646 520.985 379.842C520.985 379.038 520.751 378.39 520.283 377.898C519.815 377.394 519.197 377.142 518.429 377.142C517.661 377.142 517.043 377.394 516.575 377.898C516.107 378.39 515.873 379.038 515.873 379.842C515.873 380.646 516.107 381.3 516.575 381.804ZM529.504 375.432V377.502H529.234C528.358 377.502 527.698 377.73 527.254 378.186C526.81 378.63 526.588 379.338 526.588 380.31V384H524.824V375.684H526.588V377.502H526.624C526.828 376.866 527.164 376.362 527.632 375.99C528.112 375.618 528.694 375.432 529.378 375.432H529.504ZM539.496 384.27C538.356 384.27 537.396 383.868 536.616 383.064C535.836 382.26 535.446 381.186 535.446 379.842C535.446 378.498 535.836 377.424 536.616 376.62C537.396 375.816 538.356 375.414 539.496 375.414C540.792 375.414 541.728 375.912 542.304 376.908H542.34V375.684H544.104V384H542.34V382.776H542.304C541.728 383.772 540.792 384.27 539.496 384.27ZM538.02 381.804C538.488 382.296 539.106 382.542 539.874 382.542C540.642 382.542 541.26 382.296 541.728 381.804C542.196 381.3 542.43 380.646 542.43 379.842C542.43 379.038 542.196 378.39 541.728 377.898C541.26 377.394 540.642 377.142 539.874 377.142C539.106 377.142 538.488 377.394 538.02 377.898C537.552 378.39 537.318 379.038 537.318 379.842C537.318 380.646 537.552 381.3 538.02 381.804ZM550.787 375.414C551.747 375.414 552.509 375.696 553.073 376.26C553.637 376.812 553.919 377.688 553.919 378.888V384H552.155V379.194C552.155 377.85 551.519 377.178 550.247 377.178C548.771 377.178 548.033 378.126 548.033 380.022V384H546.269V375.684H548.033V376.944H548.069C548.645 375.924 549.551 375.414 550.787 375.414ZM559.5 384.27C558.36 384.27 557.4 383.868 556.62 383.064C555.84 382.26 555.45 381.186 555.45 379.842C555.45 378.498 555.84 377.424 556.62 376.62C557.4 375.816 558.36 375.414 559.5 375.414C560.796 375.414 561.732 375.912 562.308 376.908H562.344V371.4H564.108V384H562.344V382.776H562.308C561.732 383.772 560.796 384.27 559.5 384.27ZM558.024 381.804C558.492 382.296 559.11 382.542 559.878 382.542C560.646 382.542 561.264 382.296 561.732 381.804C562.2 381.3 562.434 380.646 562.434 379.842C562.434 379.038 562.2 378.39 561.732 377.898C561.264 377.394 560.646 377.142 559.878 377.142C559.11 377.142 558.492 377.394 558.024 377.898C557.556 378.39 557.322 379.038 557.322 379.842C557.322 380.646 557.556 381.3 558.024 381.804ZM573.436 371.4V384H571.672V371.4H573.436ZM577.73 371.58V373.74H575.57V371.58H577.73ZM575.768 384V375.684H577.532V384H575.768ZM584.291 375.414C585.251 375.414 586.013 375.696 586.577 376.26C587.141 376.812 587.423 377.688 587.423 378.888V384H585.659V379.194C585.659 377.85 585.023 377.178 583.751 377.178C582.275 377.178 581.537 378.126 581.537 380.022V384H579.773V375.684H581.537V376.944H581.573C582.149 375.924 583.055 375.414 584.291 375.414ZM597.018 384H594.696L591.348 379.914V384H589.584V371.4H591.348V379.23L594.318 375.684H596.64L593.148 379.464L597.018 384ZM607.448 384.27C606.104 384.27 605.006 383.862 604.154 383.046C603.302 382.23 602.876 381.162 602.876 379.842C602.876 378.522 603.302 377.454 604.154 376.638C605.006 375.822 606.104 375.414 607.448 375.414C608.492 375.414 609.44 375.696 610.292 376.26L609.464 377.754C608.792 377.334 608.102 377.124 607.394 377.124C606.602 377.124 605.96 377.382 605.468 377.898C604.988 378.402 604.748 379.05 604.748 379.842C604.748 380.634 604.988 381.288 605.468 381.804C605.96 382.308 606.602 382.56 607.394 382.56C608.102 382.56 608.792 382.35 609.464 381.93L610.292 383.424C609.44 383.988 608.492 384.27 607.448 384.27ZM616.41 375.432V377.502H616.14C615.264 377.502 614.604 377.73 614.16 378.186C613.716 378.63 613.494 379.338 613.494 380.31V384H611.73V375.684H613.494V377.502H613.53C613.734 376.866 614.07 376.362 614.538 375.99C615.018 375.618 615.6 375.432 616.284 375.432H616.41ZM620.923 375.414C622.171 375.414 623.143 375.816 623.839 376.62C624.547 377.412 624.901 378.486 624.901 379.842V380.13H618.457C618.493 380.862 618.739 381.456 619.195 381.912C619.663 382.356 620.257 382.578 620.977 382.578C621.961 382.578 622.813 382.092 623.533 381.12L624.775 382.29C623.815 383.61 622.561 384.27 621.013 384.27C619.693 384.27 618.637 383.868 617.845 383.064C617.065 382.248 616.675 381.18 616.675 379.86C616.675 378.564 617.053 377.502 617.809 376.674C618.577 375.834 619.615 375.414 620.923 375.414ZM620.815 377.034C620.203 377.034 619.699 377.19 619.303 377.502C618.907 377.814 618.655 378.264 618.547 378.852H622.993C622.957 378.276 622.741 377.832 622.345 377.52C621.961 377.196 621.451 377.034 620.815 377.034ZM630.024 384.27C628.884 384.27 627.924 383.868 627.144 383.064C626.364 382.26 625.974 381.186 625.974 379.842C625.974 378.498 626.364 377.424 627.144 376.62C627.924 375.816 628.884 375.414 630.024 375.414C631.32 375.414 632.256 375.912 632.832 376.908H632.868V375.684H634.632V384H632.868V382.776H632.832C632.256 383.772 631.32 384.27 630.024 384.27ZM628.548 381.804C629.016 382.296 629.634 382.542 630.402 382.542C631.17 382.542 631.788 382.296 632.256 381.804C632.724 381.3 632.958 380.646 632.958 379.842C632.958 379.038 632.724 378.39 632.256 377.898C631.788 377.394 631.17 377.142 630.402 377.142C629.634 377.142 629.016 377.394 628.548 377.898C628.08 378.39 627.846 379.038 627.846 379.842C627.846 380.646 628.08 381.3 628.548 381.804ZM640.919 377.178H639.227V381.534C639.227 382.11 639.515 382.398 640.091 382.398H640.523V384.018H639.713C638.981 384.018 638.423 383.832 638.039 383.46C637.655 383.088 637.463 382.56 637.463 381.876V377.178H635.987V375.684H637.463V372.354H639.227V375.684H640.919V377.178ZM644.403 371.58V373.74H642.243V371.58H644.403ZM642.441 384V375.684H644.205V384H642.441ZM647.203 376.674C648.067 375.834 649.153 375.414 650.461 375.414C651.769 375.414 652.855 375.834 653.719 376.674C654.583 377.514 655.015 378.57 655.015 379.842C655.015 381.114 654.583 382.17 653.719 383.01C652.855 383.85 651.769 384.27 650.461 384.27C649.153 384.27 648.067 383.85 647.203 383.01C646.339 382.17 645.907 381.114 645.907 379.842C645.907 378.57 646.339 377.514 647.203 376.674ZM652.387 377.88C651.895 377.388 651.253 377.142 650.461 377.142C649.669 377.142 649.021 377.388 648.517 377.88C648.025 378.372 647.779 379.026 647.779 379.842C647.779 380.658 648.025 381.312 648.517 381.804C649.021 382.296 649.669 382.542 650.461 382.542C651.253 382.542 651.895 382.296 652.387 381.804C652.891 381.312 653.143 380.658 653.143 379.842C653.143 379.026 652.891 378.372 652.387 377.88ZM661.161 375.414C662.121 375.414 662.883 375.696 663.447 376.26C664.011 376.812 664.293 377.688 664.293 378.888V384H662.529V379.194C662.529 377.85 661.893 377.178 660.621 377.178C659.145 377.178 658.407 378.126 658.407 380.022V384H656.643V375.684H658.407V376.944H658.443C659.019 375.924 659.925 375.414 661.161 375.414ZM206.08 406V397.684H207.844V398.98H207.88C208.336 397.936 209.17 397.414 210.382 397.414C211.594 397.414 212.434 397.978 212.902 399.106H212.938C213.178 398.542 213.532 398.122 214 397.846C214.468 397.558 214.984 397.414 215.548 397.414C216.388 397.414 217.072 397.696 217.6 398.26C218.128 398.824 218.392 399.688 218.392 400.852V406H216.628V400.942C216.628 399.766 216.082 399.178 214.99 399.178C214.414 399.178 213.958 399.382 213.622 399.79C213.286 400.186 213.118 400.816 213.118 401.68V406H211.354V400.942C211.354 399.766 210.802 399.178 209.698 399.178C209.134 399.178 208.684 399.382 208.348 399.79C208.012 400.198 207.844 400.834 207.844 401.698V406H206.08ZM224.167 397.414C225.415 397.414 226.387 397.816 227.083 398.62C227.791 399.412 228.145 400.486 228.145 401.842V402.13H221.701C221.737 402.862 221.983 403.456 222.439 403.912C222.907 404.356 223.501 404.578 224.221 404.578C225.205 404.578 226.057 404.092 226.777 403.12L228.019 404.29C227.059 405.61 225.805 406.27 224.257 406.27C222.937 406.27 221.881 405.868 221.089 405.064C220.309 404.248 219.919 403.18 219.919 401.86C219.919 400.564 220.297 399.502 221.053 398.674C221.821 397.834 222.859 397.414 224.167 397.414ZM224.059 399.034C223.447 399.034 222.943 399.19 222.547 399.502C222.151 399.814 221.899 400.264 221.791 400.852H226.237C226.201 400.276 225.985 399.832 225.589 399.52C225.205 399.196 224.695 399.034 224.059 399.034ZM234.276 397.414C235.236 397.414 235.998 397.696 236.562 398.26C237.126 398.812 237.408 399.688 237.408 400.888V406H235.644V401.194C235.644 399.85 235.008 399.178 233.736 399.178C232.26 399.178 231.522 400.126 231.522 402.022V406H229.758V397.684H231.522V398.944H231.558C232.134 397.924 233.04 397.414 234.276 397.414ZM242.43 406.27C241.542 406.27 240.81 405.982 240.234 405.406C239.67 404.818 239.388 403.924 239.388 402.724V397.684H241.188V402.544C241.188 403.216 241.338 403.72 241.638 404.056C241.95 404.392 242.382 404.56 242.934 404.56C244.326 404.56 245.022 403.594 245.022 401.662V397.684H246.786V406H245.022V404.74H244.986C244.482 405.76 243.63 406.27 242.43 406.27ZM263.686 397.684H265.63L262.84 406H261.22L259.24 400.042L257.242 406H255.622L252.832 397.684H254.776L256.45 403.678L258.376 397.684H260.086L262.012 403.678L263.686 397.684ZM267.094 398.674C267.958 397.834 269.044 397.414 270.352 397.414C271.66 397.414 272.746 397.834 273.61 398.674C274.474 399.514 274.906 400.57 274.906 401.842C274.906 403.114 274.474 404.17 273.61 405.01C272.746 405.85 271.66 406.27 270.352 406.27C269.044 406.27 267.958 405.85 267.094 405.01C266.23 404.17 265.798 403.114 265.798 401.842C265.798 400.57 266.23 399.514 267.094 398.674ZM272.278 399.88C271.786 399.388 271.144 399.142 270.352 399.142C269.56 399.142 268.912 399.388 268.408 399.88C267.916 400.372 267.67 401.026 267.67 401.842C267.67 402.658 267.916 403.312 268.408 403.804C268.912 404.296 269.56 404.542 270.352 404.542C271.144 404.542 271.786 404.296 272.278 403.804C272.782 403.312 273.034 402.658 273.034 401.842C273.034 401.026 272.782 400.372 272.278 399.88ZM279.485 406.27C278.597 406.27 277.865 405.982 277.289 405.406C276.725 404.818 276.443 403.924 276.443 402.724V397.684H278.243V402.544C278.243 403.216 278.393 403.72 278.693 404.056C279.005 404.392 279.437 404.56 279.989 404.56C281.381 404.56 282.077 403.594 282.077 401.662V397.684H283.841V406H282.077V404.74H282.041C281.537 405.76 280.685 406.27 279.485 406.27ZM287.862 393.4V406H286.098V393.4H287.862ZM293.613 406.27C292.473 406.27 291.513 405.868 290.733 405.064C289.953 404.26 289.563 403.186 289.563 401.842C289.563 400.498 289.953 399.424 290.733 398.62C291.513 397.816 292.473 397.414 293.613 397.414C294.909 397.414 295.845 397.912 296.421 398.908H296.457V393.4H298.221V406H296.457V404.776H296.421C295.845 405.772 294.909 406.27 293.613 406.27ZM292.137 403.804C292.605 404.296 293.223 404.542 293.991 404.542C294.759 404.542 295.377 404.296 295.845 403.804C296.313 403.3 296.547 402.646 296.547 401.842C296.547 401.038 296.313 400.39 295.845 399.898C295.377 399.394 294.759 399.142 293.991 399.142C293.223 399.142 292.605 399.394 292.137 399.898C291.669 400.39 291.435 401.038 291.435 401.842C291.435 402.646 291.669 403.3 292.137 403.804ZM309.205 406.27C308.065 406.27 307.105 405.868 306.325 405.064C305.545 404.26 305.155 403.186 305.155 401.842C305.155 400.498 305.545 399.424 306.325 398.62C307.105 397.816 308.065 397.414 309.205 397.414C310.501 397.414 311.437 397.912 312.013 398.908H312.049V397.684H313.813V406H312.049V404.776H312.013C311.437 405.772 310.501 406.27 309.205 406.27ZM307.729 403.804C308.197 404.296 308.815 404.542 309.583 404.542C310.351 404.542 310.969 404.296 311.437 403.804C311.905 403.3 312.139 402.646 312.139 401.842C312.139 401.038 311.905 400.39 311.437 399.898C310.969 399.394 310.351 399.142 309.583 399.142C308.815 399.142 308.197 399.394 307.729 399.898C307.261 400.39 307.027 401.038 307.027 401.842C307.027 402.646 307.261 403.3 307.729 403.804ZM319.488 406.27C318.348 406.27 317.388 405.868 316.608 405.064C315.828 404.26 315.438 403.186 315.438 401.842C315.438 400.498 315.828 399.424 316.608 398.62C317.388 397.816 318.348 397.414 319.488 397.414C320.784 397.414 321.72 397.912 322.296 398.908H322.332V393.4H324.096V406H322.332V404.776H322.296C321.72 405.772 320.784 406.27 319.488 406.27ZM318.012 403.804C318.48 404.296 319.098 404.542 319.866 404.542C320.634 404.542 321.252 404.296 321.72 403.804C322.188 403.3 322.422 402.646 322.422 401.842C322.422 401.038 322.188 400.39 321.72 399.898C321.252 399.394 320.634 399.142 319.866 399.142C319.098 399.142 318.48 399.394 318.012 399.898C317.544 400.39 317.31 401.038 317.31 401.842C317.31 402.646 317.544 403.3 318.012 403.804ZM329.86 406.27C328.72 406.27 327.76 405.868 326.98 405.064C326.2 404.26 325.81 403.186 325.81 401.842C325.81 400.498 326.2 399.424 326.98 398.62C327.76 397.816 328.72 397.414 329.86 397.414C331.156 397.414 332.092 397.912 332.668 398.908H332.704V397.684H334.468V406H332.704V404.776H332.668C332.092 405.772 331.156 406.27 329.86 406.27ZM328.384 403.804C328.852 404.296 329.47 404.542 330.238 404.542C331.006 404.542 331.624 404.296 332.092 403.804C332.56 403.3 332.794 402.646 332.794 401.842C332.794 401.038 332.56 400.39 332.092 399.898C331.624 399.394 331.006 399.142 330.238 399.142C329.47 399.142 328.852 399.394 328.384 399.898C327.916 400.39 327.682 401.038 327.682 401.842C327.682 402.646 327.916 403.3 328.384 403.804ZM336.633 409.6V397.684H338.397V398.908H338.433C339.009 397.912 339.945 397.414 341.241 397.414C342.381 397.414 343.341 397.816 344.121 398.62C344.901 399.424 345.291 400.498 345.291 401.842C345.291 403.186 344.901 404.26 344.121 405.064C343.341 405.868 342.381 406.27 341.241 406.27C339.945 406.27 339.009 405.772 338.433 404.776H338.397V409.6H336.633ZM339.009 403.804C339.477 404.296 340.095 404.542 340.863 404.542C341.631 404.542 342.249 404.296 342.717 403.804C343.185 403.3 343.419 402.646 343.419 401.842C343.419 401.038 343.185 400.39 342.717 399.898C342.249 399.394 341.631 399.142 340.863 399.142C340.095 399.142 339.477 399.394 339.009 399.898C338.541 400.39 338.307 401.038 338.307 401.842C338.307 402.646 338.541 403.3 339.009 403.804ZM350.686 399.178H348.994V403.534C348.994 404.11 349.282 404.398 349.858 404.398H350.29V406.018H349.48C348.748 406.018 348.19 405.832 347.806 405.46C347.422 405.088 347.23 404.56 347.23 403.876V399.178H345.754V397.684H347.23V394.354H348.994V397.684H350.686V399.178ZM361.462 399.178H359.77V403.534C359.77 404.11 360.058 404.398 360.634 404.398H361.066V406.018H360.256C359.524 406.018 358.966 405.832 358.582 405.46C358.198 405.088 358.006 404.56 358.006 403.876V399.178H356.53V397.684H358.006V394.354H359.77V397.684H361.462V399.178ZM363.299 398.674C364.163 397.834 365.249 397.414 366.557 397.414C367.865 397.414 368.951 397.834 369.815 398.674C370.679 399.514 371.111 400.57 371.111 401.842C371.111 403.114 370.679 404.17 369.815 405.01C368.951 405.85 367.865 406.27 366.557 406.27C365.249 406.27 364.163 405.85 363.299 405.01C362.435 404.17 362.003 403.114 362.003 401.842C362.003 400.57 362.435 399.514 363.299 398.674ZM368.483 399.88C367.991 399.388 367.349 399.142 366.557 399.142C365.765 399.142 365.117 399.388 364.613 399.88C364.121 400.372 363.875 401.026 363.875 401.842C363.875 402.658 364.121 403.312 364.613 403.804C365.117 404.296 365.765 404.542 366.557 404.542C367.349 404.542 367.991 404.296 368.483 403.804C368.987 403.312 369.239 402.658 369.239 401.842C369.239 401.026 368.987 400.372 368.483 399.88ZM381.469 406.27C380.329 406.27 379.369 405.868 378.589 405.064C377.809 404.26 377.419 403.186 377.419 401.842C377.419 400.498 377.809 399.424 378.589 398.62C379.369 397.816 380.329 397.414 381.469 397.414C382.765 397.414 383.701 397.912 384.277 398.908H384.313V397.684H386.077V406H384.313V404.776H384.277C383.701 405.772 382.765 406.27 381.469 406.27ZM379.993 403.804C380.461 404.296 381.079 404.542 381.847 404.542C382.615 404.542 383.233 404.296 383.701 403.804C384.169 403.3 384.403 402.646 384.403 401.842C384.403 401.038 384.169 400.39 383.701 399.898C383.233 399.394 382.615 399.142 381.847 399.142C381.079 399.142 380.461 399.394 379.993 399.898C379.525 400.39 379.291 401.038 379.291 401.842C379.291 402.646 379.525 403.3 379.993 403.804ZM395.317 393.4V406H393.553V393.4H395.317ZM399.611 393.58V395.74H397.451V393.58H399.611ZM397.649 406V397.684H399.413V406H397.649ZM403.965 406.27C402.717 406.27 401.589 405.976 400.581 405.388L401.373 403.822C402.285 404.35 403.167 404.614 404.019 404.614C404.883 404.614 405.315 404.356 405.315 403.84C405.315 403.504 405.021 403.192 404.433 402.904L402.921 402.166C401.757 401.614 401.175 400.816 401.175 399.772C401.175 399.016 401.433 398.434 401.949 398.026C402.477 397.618 403.203 397.414 404.127 397.414C405.087 397.414 406.047 397.63 407.007 398.062L406.287 399.592C405.447 399.232 404.709 399.052 404.073 399.052C403.389 399.052 403.047 399.262 403.047 399.682C403.047 399.886 403.113 400.06 403.245 400.204C403.389 400.348 403.641 400.504 404.001 400.672L405.549 401.41C406.653 401.926 407.205 402.706 407.205 403.75C407.205 404.578 406.911 405.208 406.323 405.64C405.747 406.06 404.961 406.27 403.965 406.27ZM412.772 399.178H411.08V403.534C411.08 404.11 411.368 404.398 411.944 404.398H412.376V406.018H411.566C410.834 406.018 410.276 405.832 409.892 405.46C409.508 405.088 409.316 404.56 409.316 403.876V399.178H407.84V397.684H409.316V394.354H411.08V397.684H412.772V399.178ZM417.561 397.414C418.809 397.414 419.781 397.816 420.477 398.62C421.185 399.412 421.539 400.486 421.539 401.842V402.13H415.095C415.131 402.862 415.377 403.456 415.833 403.912C416.301 404.356 416.895 404.578 417.615 404.578C418.599 404.578 419.451 404.092 420.171 403.12L421.413 404.29C420.453 405.61 419.199 406.27 417.651 406.27C416.331 406.27 415.275 405.868 414.483 405.064C413.703 404.248 413.313 403.18 413.313 401.86C413.313 400.564 413.691 399.502 414.447 398.674C415.215 397.834 416.253 397.414 417.561 397.414ZM417.453 399.034C416.841 399.034 416.337 399.19 415.941 399.502C415.545 399.814 415.293 400.264 415.185 400.852H419.631C419.595 400.276 419.379 399.832 418.983 399.52C418.599 399.196 418.089 399.034 417.453 399.034ZM427.67 397.414C428.63 397.414 429.392 397.696 429.956 398.26C430.52 398.812 430.802 399.688 430.802 400.888V406H429.038V401.194C429.038 399.85 428.402 399.178 427.13 399.178C425.654 399.178 424.916 400.126 424.916 402.022V406H423.152V397.684H424.916V398.944H424.952C425.528 397.924 426.434 397.414 427.67 397.414ZM436.581 397.414C437.829 397.414 438.801 397.816 439.497 398.62C440.205 399.412 440.559 400.486 440.559 401.842V402.13H434.115C434.151 402.862 434.397 403.456 434.853 403.912C435.321 404.356 435.915 404.578 436.635 404.578C437.619 404.578 438.471 404.092 439.191 403.12L440.433 404.29C439.473 405.61 438.219 406.27 436.671 406.27C435.351 406.27 434.295 405.868 433.503 405.064C432.723 404.248 432.333 403.18 432.333 401.86C432.333 400.564 432.711 399.502 433.467 398.674C434.235 397.834 435.273 397.414 436.581 397.414ZM436.473 399.034C435.861 399.034 435.357 399.19 434.961 399.502C434.565 399.814 434.313 400.264 434.205 400.852H438.651C438.615 400.276 438.399 399.832 438.003 399.52C437.619 399.196 437.109 399.034 436.473 399.034ZM446.852 397.432V399.502H446.582C445.706 399.502 445.046 399.73 444.602 400.186C444.158 400.63 443.936 401.338 443.936 402.31V406H442.172V397.684H443.936V399.502H443.972C444.176 398.866 444.512 398.362 444.98 397.99C445.46 397.618 446.042 397.432 446.726 397.432H446.852ZM449.589 393.13L449.193 397.684H448.347L447.933 393.13H449.589ZM453.429 406.27C452.181 406.27 451.053 405.976 450.045 405.388L450.837 403.822C451.749 404.35 452.631 404.614 453.483 404.614C454.347 404.614 454.779 404.356 454.779 403.84C454.779 403.504 454.485 403.192 453.897 402.904L452.385 402.166C451.221 401.614 450.639 400.816 450.639 399.772C450.639 399.016 450.897 398.434 451.413 398.026C451.941 397.618 452.667 397.414 453.591 397.414C454.551 397.414 455.511 397.63 456.471 398.062L455.751 399.592C454.911 399.232 454.173 399.052 453.537 399.052C452.853 399.052 452.511 399.262 452.511 399.682C452.511 399.886 452.577 400.06 452.709 400.204C452.853 400.348 453.105 400.504 453.465 400.672L455.013 401.41C456.117 401.926 456.669 402.706 456.669 403.75C456.669 404.578 456.375 405.208 455.787 405.64C455.211 406.06 454.425 406.27 453.429 406.27ZM463.336 409.6V397.684H465.1V398.908H465.136C465.712 397.912 466.648 397.414 467.944 397.414C469.084 397.414 470.044 397.816 470.824 398.62C471.604 399.424 471.994 400.498 471.994 401.842C471.994 403.186 471.604 404.26 470.824 405.064C470.044 405.868 469.084 406.27 467.944 406.27C466.648 406.27 465.712 405.772 465.136 404.776H465.1V409.6H463.336ZM465.712 403.804C466.18 404.296 466.798 404.542 467.566 404.542C468.334 404.542 468.952 404.296 469.42 403.804C469.888 403.3 470.122 402.646 470.122 401.842C470.122 401.038 469.888 400.39 469.42 399.898C468.952 399.394 468.334 399.142 467.566 399.142C466.798 399.142 466.18 399.394 465.712 399.898C465.244 400.39 465.01 401.038 465.01 401.842C465.01 402.646 465.244 403.3 465.712 403.804ZM478.299 397.432V399.502H478.029C477.153 399.502 476.493 399.73 476.049 400.186C475.605 400.63 475.383 401.338 475.383 402.31V406H473.619V397.684H475.383V399.502H475.419C475.623 398.866 475.959 398.362 476.427 397.99C476.907 397.618 477.489 397.432 478.173 397.432H478.299ZM482.811 397.414C484.059 397.414 485.031 397.816 485.727 398.62C486.435 399.412 486.789 400.486 486.789 401.842V402.13H480.345C480.381 402.862 480.627 403.456 481.083 403.912C481.551 404.356 482.145 404.578 482.865 404.578C483.849 404.578 484.701 404.092 485.421 403.12L486.663 404.29C485.703 405.61 484.449 406.27 482.901 406.27C481.581 406.27 480.525 405.868 479.733 405.064C478.953 404.248 478.563 403.18 478.563 401.86C478.563 400.564 478.941 399.502 479.697 398.674C480.465 397.834 481.503 397.414 482.811 397.414ZM482.703 399.034C482.091 399.034 481.587 399.19 481.191 399.502C480.795 399.814 480.543 400.264 480.435 400.852H484.881C484.845 400.276 484.629 399.832 484.233 399.52C483.849 399.196 483.339 399.034 482.703 399.034ZM491.921 394.858C490.913 394.858 490.409 395.398 490.409 396.478V397.684H492.047V399.178H490.409V406H488.645V399.178H487.331V397.684H488.645V396.532C488.645 395.5 488.921 394.69 489.473 394.102C490.037 393.514 490.829 393.22 491.849 393.22H492.191V394.858H491.921ZM496.698 397.414C497.946 397.414 498.918 397.816 499.614 398.62C500.322 399.412 500.676 400.486 500.676 401.842V402.13H494.232C494.268 402.862 494.514 403.456 494.97 403.912C495.438 404.356 496.032 404.578 496.752 404.578C497.736 404.578 498.588 404.092 499.308 403.12L500.55 404.29C499.59 405.61 498.336 406.27 496.788 406.27C495.468 406.27 494.412 405.868 493.62 405.064C492.84 404.248 492.45 403.18 492.45 401.86C492.45 400.564 492.828 399.502 493.584 398.674C494.352 397.834 495.39 397.414 496.698 397.414ZM496.59 399.034C495.978 399.034 495.474 399.19 495.078 399.502C494.682 399.814 494.43 400.264 494.322 400.852H498.768C498.732 400.276 498.516 399.832 498.12 399.52C497.736 399.196 497.226 399.034 496.59 399.034ZM506.969 397.432V399.502H506.699C505.823 399.502 505.163 399.73 504.719 400.186C504.275 400.63 504.053 401.338 504.053 402.31V406H502.289V397.684H504.053V399.502H504.089C504.293 398.866 504.629 398.362 505.097 397.99C505.577 397.618 506.159 397.432 506.843 397.432H506.969ZM512.91 397.432V399.502H512.64C511.764 399.502 511.104 399.73 510.66 400.186C510.216 400.63 509.994 401.338 509.994 402.31V406H508.23V397.684H509.994V399.502H510.03C510.234 398.866 510.57 398.362 511.038 397.99C511.518 397.618 512.1 397.432 512.784 397.432H512.91ZM517.423 397.414C518.671 397.414 519.643 397.816 520.339 398.62C521.047 399.412 521.401 400.486 521.401 401.842V402.13H514.957C514.993 402.862 515.239 403.456 515.695 403.912C516.163 404.356 516.757 404.578 517.477 404.578C518.461 404.578 519.313 404.092 520.033 403.12L521.275 404.29C520.315 405.61 519.061 406.27 517.513 406.27C516.193 406.27 515.137 405.868 514.345 405.064C513.565 404.248 513.175 403.18 513.175 401.86C513.175 400.564 513.553 399.502 514.309 398.674C515.077 397.834 516.115 397.414 517.423 397.414ZM517.315 399.034C516.703 399.034 516.199 399.19 515.803 399.502C515.407 399.814 515.155 400.264 515.047 400.852H519.493C519.457 400.276 519.241 399.832 518.845 399.52C518.461 399.196 517.951 399.034 517.315 399.034ZM526.524 406.27C525.384 406.27 524.424 405.868 523.644 405.064C522.864 404.26 522.474 403.186 522.474 401.842C522.474 400.498 522.864 399.424 523.644 398.62C524.424 397.816 525.384 397.414 526.524 397.414C527.82 397.414 528.756 397.912 529.332 398.908H529.368V393.4H531.132V406H529.368V404.776H529.332C528.756 405.772 527.82 406.27 526.524 406.27ZM525.048 403.804C525.516 404.296 526.134 404.542 526.902 404.542C527.67 404.542 528.288 404.296 528.756 403.804C529.224 403.3 529.458 402.646 529.458 401.842C529.458 401.038 529.224 400.39 528.756 399.898C528.288 399.394 527.67 399.142 526.902 399.142C526.134 399.142 525.516 399.394 525.048 399.898C524.58 400.39 524.346 401.038 524.346 401.842C524.346 402.646 524.58 403.3 525.048 403.804ZM540.459 393.4V406H538.695V393.4H540.459ZM544.753 393.58V395.74H542.593V393.58H544.753ZM542.791 406V397.684H544.555V406H542.791ZM550.991 409.87C550.163 409.87 549.095 409.744 547.787 409.492L548.129 407.782C549.257 408.034 550.211 408.16 550.991 408.16C551.795 408.16 552.353 407.986 552.665 407.638C552.989 407.302 553.151 406.678 553.151 405.766V404.776H553.115C552.539 405.772 551.603 406.27 550.307 406.27C549.167 406.27 548.207 405.868 547.427 405.064C546.647 404.26 546.257 403.186 546.257 401.842C546.257 400.498 546.647 399.424 547.427 398.62C548.207 397.816 549.167 397.414 550.307 397.414C551.603 397.414 552.539 397.912 553.115 398.908H553.151V397.684H554.915V406C554.891 406.792 554.777 407.452 554.573 407.98C554.369 408.508 554.081 408.904 553.709 409.168C553.337 409.432 552.935 409.612 552.503 409.708C552.083 409.816 551.579 409.87 550.991 409.87ZM548.831 403.804C549.299 404.296 549.917 404.542 550.685 404.542C551.453 404.542 552.071 404.296 552.539 403.804C553.007 403.3 553.241 402.646 553.241 401.842C553.241 401.038 553.007 400.39 552.539 399.898C552.071 399.394 551.453 399.142 550.685 399.142C549.917 399.142 549.299 399.394 548.831 399.898C548.363 400.39 548.129 401.038 548.129 401.842C548.129 402.646 548.363 403.3 548.831 403.804ZM558.934 393.4V398.944H558.97C559.546 397.924 560.452 397.414 561.688 397.414C562.636 397.414 563.392 397.696 563.956 398.26C564.532 398.812 564.82 399.688 564.82 400.888V406H563.056V401.194C563.056 399.85 562.42 399.178 561.148 399.178C559.672 399.178 558.934 400.126 558.934 402.022V406H557.17V393.4H558.934ZM570.554 399.178H568.862V403.534C568.862 404.11 569.15 404.398 569.726 404.398H570.158V406.018H569.348C568.616 406.018 568.058 405.832 567.674 405.46C567.29 405.088 567.098 404.56 567.098 403.876V399.178H565.622V397.684H567.098V394.354H568.862V397.684H570.554V399.178ZM577.963 398.674C578.827 397.834 579.913 397.414 581.221 397.414C582.529 397.414 583.615 397.834 584.479 398.674C585.343 399.514 585.775 400.57 585.775 401.842C585.775 403.114 585.343 404.17 584.479 405.01C583.615 405.85 582.529 406.27 581.221 406.27C579.913 406.27 578.827 405.85 577.963 405.01C577.099 404.17 576.667 403.114 576.667 401.842C576.667 400.57 577.099 399.514 577.963 398.674ZM583.147 399.88C582.655 399.388 582.013 399.142 581.221 399.142C580.429 399.142 579.781 399.388 579.277 399.88C578.785 400.372 578.539 401.026 578.539 401.842C578.539 402.658 578.785 403.312 579.277 403.804C579.781 404.296 580.429 404.542 581.221 404.542C582.013 404.542 582.655 404.296 583.147 403.804C583.651 403.312 583.903 402.658 583.903 401.842C583.903 401.026 583.651 400.372 583.147 399.88ZM592.082 397.432V399.502H591.812C590.936 399.502 590.276 399.73 589.832 400.186C589.388 400.63 589.166 401.338 589.166 402.31V406H587.402V397.684H589.166V399.502H589.202C589.406 398.866 589.742 398.362 590.21 397.99C590.69 397.618 591.272 397.432 591.956 397.432H592.082ZM602.074 406.27C600.934 406.27 599.974 405.868 599.194 405.064C598.414 404.26 598.024 403.186 598.024 401.842C598.024 400.498 598.414 399.424 599.194 398.62C599.974 397.816 600.934 397.414 602.074 397.414C603.37 397.414 604.306 397.912 604.882 398.908H604.918V393.4H606.682V406H604.918V404.776H604.882C604.306 405.772 603.37 406.27 602.074 406.27ZM600.598 403.804C601.066 404.296 601.684 404.542 602.452 404.542C603.22 404.542 603.838 404.296 604.306 403.804C604.774 403.3 605.008 402.646 605.008 401.842C605.008 401.038 604.774 400.39 604.306 399.898C603.838 399.394 603.22 399.142 602.452 399.142C601.684 399.142 601.066 399.394 600.598 399.898C600.13 400.39 599.896 401.038 599.896 401.842C599.896 402.646 600.13 403.3 600.598 403.804ZM612.445 406.27C611.305 406.27 610.345 405.868 609.565 405.064C608.785 404.26 608.395 403.186 608.395 401.842C608.395 400.498 608.785 399.424 609.565 398.62C610.345 397.816 611.305 397.414 612.445 397.414C613.741 397.414 614.677 397.912 615.253 398.908H615.289V397.684H617.053V406H615.289V404.776H615.253C614.677 405.772 613.741 406.27 612.445 406.27ZM610.969 403.804C611.437 404.296 612.055 404.542 612.823 404.542C613.591 404.542 614.209 404.296 614.677 403.804C615.145 403.3 615.379 402.646 615.379 401.842C615.379 401.038 615.145 400.39 614.677 399.898C614.209 399.394 613.591 399.142 612.823 399.142C612.055 399.142 611.437 399.394 610.969 399.898C610.501 400.39 610.267 401.038 610.267 401.842C610.267 402.646 610.501 403.3 610.969 403.804ZM623.899 397.432V399.502H623.629C622.753 399.502 622.093 399.73 621.649 400.186C621.205 400.63 620.983 401.338 620.983 402.31V406H619.219V397.684H620.983V399.502H621.019C621.223 398.866 621.559 398.362 622.027 397.99C622.507 397.618 623.089 397.432 623.773 397.432H623.899ZM632.684 406H630.362L627.014 401.914V406H625.25V393.4H627.014V401.23L629.984 397.684H632.306L628.814 401.464L632.684 406ZM643.204 399.178H641.512V403.534C641.512 404.11 641.8 404.398 642.376 404.398H642.808V406.018H641.998C641.266 406.018 640.708 405.832 640.324 405.46C639.94 405.088 639.748 404.56 639.748 403.876V399.178H638.272V397.684H639.748V394.354H641.512V397.684H643.204V399.178ZM646.491 393.4V398.944H646.527C647.103 397.924 648.009 397.414 649.245 397.414C650.193 397.414 650.949 397.696 651.513 398.26C652.089 398.812 652.377 399.688 652.377 400.888V406H650.613V401.194C650.613 399.85 649.977 399.178 648.705 399.178C647.229 399.178 646.491 400.126 646.491 402.022V406H644.727V393.4H646.491ZM658.153 397.414C659.401 397.414 660.373 397.816 661.069 398.62C661.777 399.412 662.131 400.486 662.131 401.842V402.13H655.687C655.723 402.862 655.969 403.456 656.425 403.912C656.893 404.356 657.487 404.578 658.207 404.578C659.191 404.578 660.043 404.092 660.763 403.12L662.005 404.29C661.045 405.61 659.791 406.27 658.243 406.27C656.923 406.27 655.867 405.868 655.075 405.064C654.295 404.248 653.905 403.18 653.905 401.86C653.905 400.564 654.283 399.502 655.039 398.674C655.807 397.834 656.845 397.414 658.153 397.414ZM658.045 399.034C657.433 399.034 656.929 399.19 656.533 399.502C656.137 399.814 655.885 400.264 655.777 400.852H660.223C660.187 400.276 659.971 399.832 659.575 399.52C659.191 399.196 658.681 399.034 658.045 399.034ZM663.744 406V397.684H665.508V398.98H665.544C666 397.936 666.834 397.414 668.046 397.414C669.258 397.414 670.098 397.978 670.566 399.106H670.602C670.842 398.542 671.196 398.122 671.664 397.846C672.132 397.558 672.648 397.414 673.212 397.414C674.052 397.414 674.736 397.696 675.264 398.26C675.792 398.824 676.056 399.688 676.056 400.852V406H674.292V400.942C674.292 399.766 673.746 399.178 672.654 399.178C672.078 399.178 671.622 399.382 671.286 399.79C670.95 400.186 670.782 400.816 670.782 401.68V406H669.018V400.942C669.018 399.766 668.466 399.178 667.362 399.178C666.798 399.178 666.348 399.382 666.012 399.79C665.676 400.198 665.508 400.834 665.508 401.698V406H663.744ZM681.831 397.414C683.079 397.414 684.051 397.816 684.747 398.62C685.455 399.412 685.809 400.486 685.809 401.842V402.13H679.365C679.401 402.862 679.647 403.456 680.103 403.912C680.571 404.356 681.165 404.578 681.885 404.578C682.869 404.578 683.721 404.092 684.441 403.12L685.683 404.29C684.723 405.61 683.469 406.27 681.921 406.27C680.601 406.27 679.545 405.868 678.753 405.064C677.973 404.248 677.583 403.18 677.583 401.86C677.583 400.564 677.961 399.502 678.717 398.674C679.485 397.834 680.523 397.414 681.831 397.414ZM681.723 399.034C681.111 399.034 680.607 399.19 680.211 399.502C679.815 399.814 679.563 400.264 679.455 400.852H683.901C683.865 400.276 683.649 399.832 683.253 399.52C682.869 399.196 682.359 399.034 681.723 399.034ZM209.95 416.858C208.942 416.858 208.438 417.398 208.438 418.478V419.684H210.076V421.178H208.438V428H206.674V421.178H205.36V419.684H206.674V418.532C206.674 417.5 206.95 416.69 207.502 416.102C208.066 415.514 208.858 415.22 209.878 415.22H210.22V416.858H209.95ZM211.775 420.674C212.639 419.834 213.725 419.414 215.033 419.414C216.341 419.414 217.427 419.834 218.291 420.674C219.155 421.514 219.587 422.57 219.587 423.842C219.587 425.114 219.155 426.17 218.291 427.01C217.427 427.85 216.341 428.27 215.033 428.27C213.725 428.27 212.639 427.85 211.775 427.01C210.911 426.17 210.479 425.114 210.479 423.842C210.479 422.57 210.911 421.514 211.775 420.674ZM216.959 421.88C216.467 421.388 215.825 421.142 215.033 421.142C214.241 421.142 213.593 421.388 213.089 421.88C212.597 422.372 212.351 423.026 212.351 423.842C212.351 424.658 212.597 425.312 213.089 425.804C213.593 426.296 214.241 426.542 215.033 426.542C215.825 426.542 216.467 426.296 216.959 425.804C217.463 425.312 217.715 424.658 217.715 423.842C217.715 423.026 217.463 422.372 216.959 421.88ZM225.895 419.432V421.502H225.625C224.749 421.502 224.089 421.73 223.645 422.186C223.201 422.63 222.979 423.338 222.979 424.31V428H221.215V419.684H222.979V421.502H223.015C223.219 420.866 223.555 420.362 224.023 419.99C224.503 419.618 225.085 419.432 225.769 419.432H225.895ZM236.499 421.178H234.807V425.534C234.807 426.11 235.095 426.398 235.671 426.398H236.103V428.018H235.293C234.561 428.018 234.003 427.832 233.619 427.46C233.235 427.088 233.043 426.56 233.043 425.876V421.178H231.567V419.684H233.043V416.354H234.807V419.684H236.499V421.178ZM239.786 415.4V420.944H239.822C240.398 419.924 241.304 419.414 242.54 419.414C243.488 419.414 244.244 419.696 244.808 420.26C245.384 420.812 245.672 421.688 245.672 422.888V428H243.908V423.194C243.908 421.85 243.272 421.178 242 421.178C240.524 421.178 239.786 422.126 239.786 424.022V428H238.022V415.4H239.786ZM251.448 419.414C252.696 419.414 253.668 419.816 254.364 420.62C255.072 421.412 255.426 422.486 255.426 423.842V424.13H248.982C249.018 424.862 249.264 425.456 249.72 425.912C250.188 426.356 250.782 426.578 251.502 426.578C252.486 426.578 253.338 426.092 254.058 425.12L255.3 426.29C254.34 427.61 253.086 428.27 251.538 428.27C250.218 428.27 249.162 427.868 248.37 427.064C247.59 426.248 247.2 425.18 247.2 423.86C247.2 422.564 247.578 421.502 248.334 420.674C249.102 419.834 250.14 419.414 251.448 419.414ZM251.34 421.034C250.728 421.034 250.224 421.19 249.828 421.502C249.432 421.814 249.18 422.264 249.072 422.852H253.518C253.482 422.276 253.266 421.832 252.87 421.52C252.486 421.196 251.976 421.034 251.34 421.034ZM259.091 415.58V417.74H256.931V415.58H259.091ZM257.129 428V419.684H258.893V428H257.129ZM265.815 419.432V421.502H265.545C264.669 421.502 264.009 421.73 263.565 422.186C263.121 422.63 262.899 423.338 262.899 424.31V428H261.135V419.684H262.899V421.502H262.935C263.139 420.866 263.475 420.362 263.943 419.99C264.423 419.618 265.005 419.432 265.689 419.432H265.815ZM276.995 428.27C275.699 428.27 274.763 427.772 274.187 426.776H274.151V428H272.387V415.4H274.151V420.908H274.187C274.763 419.912 275.699 419.414 276.995 419.414C278.135 419.414 279.095 419.816 279.875 420.62C280.655 421.424 281.045 422.498 281.045 423.842C281.045 425.186 280.655 426.26 279.875 427.064C279.095 427.868 278.135 428.27 276.995 428.27ZM274.763 425.804C275.231 426.296 275.849 426.542 276.617 426.542C277.385 426.542 278.003 426.296 278.471 425.804C278.939 425.3 279.173 424.646 279.173 423.842C279.173 423.038 278.939 422.39 278.471 421.898C278.003 421.394 277.385 421.142 276.617 421.142C275.849 421.142 275.231 421.394 274.763 421.898C274.295 422.39 274.061 423.038 274.061 423.842C274.061 424.646 274.295 425.3 274.763 425.804ZM287.348 419.432V421.502H287.078C286.202 421.502 285.542 421.73 285.098 422.186C284.654 422.63 284.432 423.338 284.432 424.31V428H282.668V419.684H284.432V421.502H284.468C284.672 420.866 285.008 420.362 285.476 419.99C285.956 419.618 286.538 419.432 287.222 419.432H287.348ZM288.908 420.674C289.772 419.834 290.858 419.414 292.166 419.414C293.474 419.414 294.56 419.834 295.424 420.674C296.288 421.514 296.72 422.57 296.72 423.842C296.72 425.114 296.288 426.17 295.424 427.01C294.56 427.85 293.474 428.27 292.166 428.27C290.858 428.27 289.772 427.85 288.908 427.01C288.044 426.17 287.612 425.114 287.612 423.842C287.612 422.57 288.044 421.514 288.908 420.674ZM294.092 421.88C293.6 421.388 292.958 421.142 292.166 421.142C291.374 421.142 290.726 421.388 290.222 421.88C289.73 422.372 289.484 423.026 289.484 423.842C289.484 424.658 289.73 425.312 290.222 425.804C290.726 426.296 291.374 426.542 292.166 426.542C292.958 426.542 293.6 426.296 294.092 425.804C294.596 425.312 294.848 424.658 294.848 423.842C294.848 423.026 294.596 422.372 294.092 421.88ZM307.755 419.684H309.699L306.909 428H305.289L303.309 422.042L301.311 428H299.691L296.901 419.684H298.845L300.519 425.678L302.445 419.684H304.155L306.081 425.678L307.755 419.684ZM312.98 428.27C311.732 428.27 310.604 427.976 309.596 427.388L310.388 425.822C311.3 426.35 312.182 426.614 313.034 426.614C313.898 426.614 314.33 426.356 314.33 425.84C314.33 425.504 314.036 425.192 313.448 424.904L311.936 424.166C310.772 423.614 310.19 422.816 310.19 421.772C310.19 421.016 310.448 420.434 310.964 420.026C311.492 419.618 312.218 419.414 313.142 419.414C314.102 419.414 315.062 419.63 316.022 420.062L315.302 421.592C314.462 421.232 313.724 421.052 313.088 421.052C312.404 421.052 312.062 421.262 312.062 421.682C312.062 421.886 312.128 422.06 312.26 422.204C312.404 422.348 312.656 422.504 313.016 422.672L314.564 423.41C315.668 423.926 316.22 424.706 316.22 425.75C316.22 426.578 315.926 427.208 315.338 427.64C314.762 428.06 313.976 428.27 312.98 428.27ZM321.374 419.414C322.622 419.414 323.594 419.816 324.29 420.62C324.998 421.412 325.352 422.486 325.352 423.842V424.13H318.908C318.944 424.862 319.19 425.456 319.646 425.912C320.114 426.356 320.708 426.578 321.428 426.578C322.412 426.578 323.264 426.092 323.984 425.12L325.226 426.29C324.266 427.61 323.012 428.27 321.464 428.27C320.144 428.27 319.088 427.868 318.296 427.064C317.516 426.248 317.126 425.18 317.126 423.86C317.126 422.564 317.504 421.502 318.26 420.674C319.028 419.834 320.066 419.414 321.374 419.414ZM321.266 421.034C320.654 421.034 320.15 421.19 319.754 421.502C319.358 421.814 319.106 422.264 318.998 422.852H323.444C323.408 422.276 323.192 421.832 322.796 421.52C322.412 421.196 321.902 421.034 321.266 421.034ZM331.645 419.432V421.502H331.375C330.499 421.502 329.839 421.73 329.395 422.186C328.951 422.63 328.729 423.338 328.729 424.31V428H326.965V419.684H328.729V421.502H328.765C328.969 420.866 329.305 420.362 329.773 419.99C330.253 419.618 330.835 419.432 331.519 419.432H331.645ZM334.062 425.858V428H331.92V425.858H334.062Z" fill="white"/>
<path d="M1370.5 525.575C1324.06 525.575 1286.42 487.933 1286.42 441.496C1286.42 395.062 1324.06 357.417 1370.5 357.417C1416.93 357.417 1454.58 395.062 1454.58 441.496C1454.58 487.933 1416.93 525.575 1370.5 525.575ZM1370.5 506.892C1406.62 506.892 1435.89 477.615 1435.89 441.496C1435.89 405.381 1406.62 376.103 1370.5 376.103C1334.38 376.103 1305.11 405.381 1305.11 441.496C1305.11 477.614 1334.38 506.892 1370.5 506.892ZM1379.84 320.053H1361.16V264H1379.84V320.053ZM1462.98 362.23L1449.77 349.017L1489.4 309.38L1502.62 322.593L1462.98 362.23ZM1491.95 450.841V432.158H1548V450.841H1491.95ZM1449.77 533.983L1462.98 520.77L1502.62 560.404L1489.4 573.617L1449.77 533.983ZM1361.16 562.947H1379.84V619H1361.16V562.947ZM1278.02 520.77L1291.23 533.983L1251.59 573.617L1238.38 560.404L1278.02 520.77ZM1249.05 432.159V450.842H1193V432.159H1249.05ZM1291.23 349.017L1278.02 362.23L1238.38 322.593L1251.59 309.38L1291.23 349.017Z" fill="white"/>
<path d="M1266.49 849.942C1265.35 848.219 1263.26 847.391 1261.25 847.866C1227.78 855.867 1192.54 851.387 1162.13 835.265C1131.73 819.144 1108.25 792.492 1096.09 760.3C1083.93 728.108 1083.92 692.585 1096.08 660.391C1100.63 648.436 1106.77 637.15 1114.33 626.829C1115.54 625.161 1115.59 622.917 1114.45 621.2C1113.31 619.484 1111.22 618.66 1109.21 619.131C1077.48 626.692 1049.04 644.308 1028.14 669.355C1007.23 694.398 994.986 725.532 993.222 758.101C991.457 790.677 1000.27 822.949 1018.34 850.103C1036.42 877.26 1062.79 897.847 1093.51 908.794C1124.24 919.741 1157.69 920.46 1188.86 910.844C1220.03 901.229 1247.26 881.795 1266.49 855.441C1267.61 853.779 1267.61 851.605 1266.49 849.943L1266.49 849.942ZM1094.41 898.649C1067.11 888.403 1043.64 869.967 1027.22 845.865C1010.81 821.764 1002.24 793.178 1002.7 764.021C1003.16 734.863 1012.63 706.564 1029.8 682.99C1046.97 659.421 1071.01 641.734 1098.62 632.357C1083.36 657.791 1075.92 687.151 1077.22 716.783C1078.52 746.415 1088.51 775.008 1105.95 799.003C1123.38 822.999 1147.48 841.338 1175.27 851.735C1199.13 860.75 1224.9 863.55 1250.15 859.874C1231.15 881.314 1206.1 896.498 1178.3 903.418C1150.49 910.341 1121.25 908.679 1094.41 898.651L1094.41 898.649Z" fill="white"/>
</svg>
