<svg width="1921" height="1080" viewBox="0 0 1921 1080" fill="none" xmlns="http://www.w3.org/2000/svg">
<g clip-path="url(#clip0_1968_485)">
<rect width="1920" height="1080" transform="translate(0.998047)" fill="#1A1E26"/>
<g clip-path="url(#clip1_1968_485)">
<path d="M829.525 266.699H878.169V290.838H829.525V266.699ZM788.998 186.226V266.699L853.841 226.468L788.998 186.226Z" fill="white"/>
</g>
<path d="M968.247 132.836C992.485 132.836 1012.21 139.987 1027.41 154.29C1042.77 168.442 1050.45 187.637 1050.45 211.876C1050.45 236.114 1042.77 255.385 1027.41 269.687C1012.21 283.839 992.485 290.915 968.247 290.915H917.661V132.836H968.247ZM969.602 159.484H946.567V264.267H969.602C984.356 264.267 996.325 259.676 1005.51 250.492C1014.69 241.308 1019.28 228.436 1019.28 211.876C1019.28 195.315 1014.69 182.443 1005.51 173.259C996.325 164.076 984.356 159.484 969.602 159.484ZM1094.85 134.191V164.678H1063.23V134.191H1094.85ZM1065.04 290.915V186.583H1092.82V290.915H1065.04ZM1145.59 294.302C1129.03 294.302 1114.12 290.614 1100.87 283.237L1112.17 259.751C1124.51 266.977 1136.18 270.591 1147.17 270.591C1155.75 270.591 1160.04 268.107 1160.04 263.138C1160.04 261.181 1159.36 259.6 1158.01 258.396C1156.65 257.192 1154.32 255.761 1151.01 254.105L1132.26 245.975C1116.61 239.05 1108.78 228.662 1108.78 214.811C1108.78 204.574 1112.24 196.745 1119.17 191.325C1126.09 185.905 1136.1 183.196 1149.2 183.196C1160.94 183.196 1173.29 185.604 1186.24 190.422L1176.98 213.682C1165.69 208.865 1155.9 206.456 1147.62 206.456C1140.54 206.456 1137.01 208.563 1137.01 212.779C1137.01 214.736 1137.68 216.392 1139.04 217.747C1140.54 219.102 1143.18 220.608 1146.94 222.264L1165.69 230.393C1181.04 236.717 1188.72 246.879 1188.72 260.88C1188.72 272.021 1184.88 280.376 1177.2 285.947C1169.53 291.517 1158.99 294.302 1145.59 294.302ZM1251.27 294.302C1234.26 294.302 1220.4 289.184 1209.72 278.946C1199.03 268.709 1193.68 255.31 1193.68 238.749C1193.68 222.188 1199.03 208.789 1209.72 198.552C1220.4 188.314 1234.26 183.196 1251.27 183.196C1264.52 183.196 1276.71 186.658 1287.85 193.584L1275.88 216.392C1268.2 211.574 1260.15 209.166 1251.72 209.166C1243.14 209.166 1236.06 211.951 1230.49 217.521C1224.92 222.941 1222.14 230.017 1222.14 238.749C1222.14 247.481 1224.92 254.632 1230.49 260.203C1236.06 265.622 1243.14 268.332 1251.72 268.332C1260.15 268.332 1268.2 265.924 1275.88 261.106L1287.85 283.914C1276.71 290.84 1264.52 294.302 1251.27 294.302ZM1302.68 198.778C1313.67 188.39 1327.52 183.196 1344.23 183.196C1360.94 183.196 1374.72 188.39 1385.56 198.778C1396.55 209.166 1402.04 222.489 1402.04 238.749C1402.04 255.009 1396.55 268.332 1385.56 278.72C1374.72 289.108 1360.94 294.302 1344.23 294.302C1327.52 294.302 1313.67 289.108 1302.68 278.72C1291.84 268.332 1286.42 255.009 1286.42 238.749C1286.42 222.489 1291.84 209.166 1302.68 198.778ZM1365.23 217.521C1359.81 212.101 1352.81 209.391 1344.23 209.391C1335.65 209.391 1328.58 212.101 1323.01 217.521C1317.59 222.791 1314.88 229.866 1314.88 238.749C1314.88 247.632 1317.59 254.783 1323.01 260.203C1328.58 265.472 1335.65 268.107 1344.23 268.107C1352.81 268.107 1359.81 265.472 1365.23 260.203C1370.65 254.783 1373.36 247.632 1373.36 238.749C1373.36 229.866 1370.65 222.791 1365.23 217.521ZM1478.41 186.583H1510.03L1467.35 290.915H1440.25L1397.79 186.583H1429.18L1453.8 258.848L1478.41 186.583ZM1560.06 183.196C1576.02 183.196 1588.44 188.088 1597.32 197.874C1606.2 207.51 1610.65 221.21 1610.65 238.975V244.395H1532.73C1533.49 252.374 1536.5 258.622 1541.77 263.138C1547.19 267.504 1553.96 269.687 1562.09 269.687C1573.38 269.687 1583.77 264.945 1593.26 255.46L1607.26 275.559C1593.71 288.055 1578.65 294.302 1562.09 294.302C1545.08 294.302 1531.46 289.259 1521.22 279.172C1510.98 269.085 1505.86 255.686 1505.86 238.975C1505.86 222.264 1510.83 208.789 1520.77 198.552C1530.7 188.314 1543.8 183.196 1560.06 183.196ZM1558.7 205.552C1544.1 205.552 1535.67 212.553 1533.41 226.554H1582.64C1582.19 219.93 1579.78 214.811 1575.42 211.198C1571.2 207.434 1565.63 205.552 1558.7 205.552ZM1687.13 183.421V213.231H1683.96C1672.67 213.231 1664.39 215.94 1659.12 221.36C1653.85 226.78 1651.22 235.738 1651.22 248.234V290.915H1623.67V186.583H1650.99V208.714H1651.45C1657.02 191.852 1668.53 183.421 1686 183.421H1687.13ZM1771.98 186.583H1801.11L1734.26 336.08H1705.58L1731.1 281.204L1685.94 186.583H1718.45L1744.88 250.04L1771.98 186.583Z" fill="white"/>
<mask id="mask0_1968_485" style="mask-type:alpha" maskUnits="userSpaceOnUse" x="917" y="132" width="885" height="205">
<path d="M968.247 132.836C992.485 132.836 1012.21 139.987 1027.41 154.29C1042.77 168.442 1050.45 187.637 1050.45 211.876C1050.45 236.114 1042.77 255.385 1027.41 269.687C1012.21 283.839 992.485 290.915 968.247 290.915H917.661V132.836H968.247ZM969.602 159.484H946.567V264.267H969.602C984.356 264.267 996.325 259.676 1005.51 250.492C1014.69 241.308 1019.28 228.436 1019.28 211.876C1019.28 195.315 1014.69 182.443 1005.51 173.259C996.325 164.076 984.356 159.484 969.602 159.484ZM1094.85 134.191V164.678H1063.23V134.191H1094.85ZM1065.04 290.915V186.583H1092.82V290.915H1065.04ZM1145.59 294.302C1129.03 294.302 1114.12 290.614 1100.87 283.237L1112.17 259.751C1124.51 266.977 1136.18 270.591 1147.17 270.591C1155.75 270.591 1160.04 268.107 1160.04 263.138C1160.04 261.181 1159.36 259.6 1158.01 258.396C1156.65 257.192 1154.32 255.761 1151.01 254.105L1132.26 245.975C1116.61 239.05 1108.78 228.662 1108.78 214.811C1108.78 204.574 1112.24 196.745 1119.17 191.325C1126.09 185.905 1136.1 183.196 1149.2 183.196C1160.94 183.196 1173.29 185.604 1186.24 190.422L1176.98 213.682C1165.69 208.865 1155.9 206.456 1147.62 206.456C1140.54 206.456 1137.01 208.563 1137.01 212.779C1137.01 214.736 1137.68 216.392 1139.04 217.747C1140.54 219.102 1143.18 220.608 1146.94 222.264L1165.69 230.393C1181.04 236.717 1188.72 246.879 1188.72 260.88C1188.72 272.021 1184.88 280.376 1177.2 285.947C1169.53 291.517 1158.99 294.302 1145.59 294.302ZM1251.27 294.302C1234.26 294.302 1220.4 289.184 1209.72 278.946C1199.03 268.709 1193.68 255.31 1193.68 238.749C1193.68 222.188 1199.03 208.789 1209.72 198.552C1220.4 188.314 1234.26 183.196 1251.27 183.196C1264.52 183.196 1276.71 186.658 1287.85 193.584L1275.88 216.392C1268.2 211.574 1260.15 209.166 1251.72 209.166C1243.14 209.166 1236.06 211.951 1230.49 217.521C1224.92 222.941 1222.14 230.017 1222.14 238.749C1222.14 247.481 1224.92 254.632 1230.49 260.203C1236.06 265.622 1243.14 268.332 1251.72 268.332C1260.15 268.332 1268.2 265.924 1275.88 261.106L1287.85 283.914C1276.71 290.84 1264.52 294.302 1251.27 294.302ZM1302.68 198.778C1313.67 188.39 1327.52 183.196 1344.23 183.196C1360.94 183.196 1374.72 188.39 1385.56 198.778C1396.55 209.166 1402.04 222.489 1402.04 238.749C1402.04 255.009 1396.55 268.332 1385.56 278.72C1374.72 289.108 1360.94 294.302 1344.23 294.302C1327.52 294.302 1313.67 289.108 1302.68 278.72C1291.84 268.332 1286.42 255.009 1286.42 238.749C1286.42 222.489 1291.84 209.166 1302.68 198.778ZM1365.23 217.521C1359.81 212.101 1352.81 209.391 1344.23 209.391C1335.65 209.391 1328.58 212.101 1323.01 217.521C1317.59 222.791 1314.88 229.866 1314.88 238.749C1314.88 247.632 1317.59 254.783 1323.01 260.203C1328.58 265.472 1335.65 268.107 1344.23 268.107C1352.81 268.107 1359.81 265.472 1365.23 260.203C1370.65 254.783 1373.36 247.632 1373.36 238.749C1373.36 229.866 1370.65 222.791 1365.23 217.521ZM1478.41 186.583H1510.03L1467.35 290.915H1440.25L1397.79 186.583H1429.18L1453.8 258.848L1478.41 186.583ZM1560.06 183.196C1576.02 183.196 1588.44 188.088 1597.32 197.874C1606.2 207.51 1610.65 221.21 1610.65 238.975V244.395H1532.73C1533.49 252.374 1536.5 258.622 1541.77 263.138C1547.19 267.504 1553.96 269.687 1562.09 269.687C1573.38 269.687 1583.77 264.945 1593.26 255.46L1607.26 275.559C1593.71 288.055 1578.65 294.302 1562.09 294.302C1545.08 294.302 1531.46 289.259 1521.22 279.172C1510.98 269.085 1505.86 255.686 1505.86 238.975C1505.86 222.264 1510.83 208.789 1520.77 198.552C1530.7 188.314 1543.8 183.196 1560.06 183.196ZM1558.7 205.552C1544.1 205.552 1535.67 212.553 1533.41 226.554H1582.64C1582.19 219.93 1579.78 214.811 1575.42 211.198C1571.2 207.434 1565.63 205.552 1558.7 205.552ZM1687.13 183.421V213.231H1683.96C1672.67 213.231 1664.39 215.94 1659.12 221.36C1653.85 226.78 1651.22 235.738 1651.22 248.234V290.915H1623.67V186.583H1650.99V208.714H1651.45C1657.02 191.852 1668.53 183.421 1686 183.421H1687.13ZM1771.98 186.583H1801.11L1734.26 336.08H1705.58L1731.1 281.204L1685.94 186.583H1718.45L1744.88 250.04L1771.98 186.583Z" fill="white"/>
</mask>
<g mask="url(#mask0_1968_485)">
<rect x="1492.51" y="76.5742" width="428.599" height="271.709" fill="#747474"/>
</g>
<line x1="1493.01" y1="87.4331" x2="1493.01" y2="1131.61" stroke="white"/>
<path d="M1527.71 321.574H1520.49V326.302H1527.16V328.654H1520.49V336.022H1517.99V319.222H1527.71V321.574ZM1533.97 324.574C1535.63 324.574 1536.93 325.11 1537.86 326.182C1538.8 327.238 1539.27 328.67 1539.27 330.478V330.862H1530.68C1530.73 331.838 1531.06 332.63 1531.67 333.238C1532.29 333.83 1533.08 334.126 1534.04 334.126C1535.35 334.126 1536.49 333.478 1537.45 332.182L1539.11 333.742C1537.83 335.502 1536.15 336.382 1534.09 336.382C1532.33 336.382 1530.92 335.846 1529.87 334.774C1528.83 333.686 1528.31 332.262 1528.31 330.502C1528.31 328.774 1528.81 327.358 1529.82 326.254C1530.84 325.134 1532.23 324.574 1533.97 324.574ZM1533.83 326.734C1533.01 326.734 1532.34 326.942 1531.81 327.358C1531.28 327.774 1530.95 328.374 1530.8 329.158H1536.73C1536.68 328.39 1536.39 327.798 1535.87 327.382C1535.35 326.95 1534.67 326.734 1533.83 326.734ZM1546.1 336.382C1544.58 336.382 1543.3 335.846 1542.26 334.774C1541.22 333.702 1540.7 332.27 1540.7 330.478C1540.7 328.686 1541.22 327.254 1542.26 326.182C1543.3 325.11 1544.58 324.574 1546.1 324.574C1547.83 324.574 1549.08 325.238 1549.85 326.566H1549.9V324.934H1552.25V336.022H1549.9V334.39H1549.85C1549.08 335.718 1547.83 336.382 1546.1 336.382ZM1544.14 333.094C1544.76 333.75 1545.58 334.078 1546.61 334.078C1547.63 334.078 1548.46 333.75 1549.08 333.094C1549.7 332.422 1550.02 331.55 1550.02 330.478C1550.02 329.406 1549.7 328.542 1549.08 327.886C1548.46 327.214 1547.63 326.878 1546.61 326.878C1545.58 326.878 1544.76 327.214 1544.14 327.886C1543.51 328.542 1543.2 329.406 1543.2 330.478C1543.2 331.55 1543.51 332.422 1544.14 333.094ZM1560.63 326.926H1558.38V332.734C1558.38 333.502 1558.76 333.886 1559.53 333.886H1560.1V336.046H1559.02C1558.05 336.046 1557.3 335.798 1556.79 335.302C1556.28 334.806 1556.02 334.102 1556.02 333.19V326.926H1554.06V324.934H1556.02V320.494H1558.38V324.934H1560.63V326.926ZM1566.48 336.382C1565.29 336.382 1564.32 335.998 1563.55 335.23C1562.8 334.446 1562.42 333.254 1562.42 331.654V324.934H1564.82V331.414C1564.82 332.31 1565.02 332.982 1565.42 333.43C1565.84 333.878 1566.41 334.102 1567.15 334.102C1569.01 334.102 1569.93 332.814 1569.93 330.238V324.934H1572.29V336.022H1569.93V334.342H1569.89C1569.21 335.702 1568.08 336.382 1566.48 336.382ZM1581.41 324.598V327.358H1581.05C1579.89 327.358 1579.01 327.662 1578.41 328.27C1577.82 328.862 1577.53 329.806 1577.53 331.102V336.022H1575.17V324.934H1577.53V327.358H1577.57C1577.85 326.51 1578.29 325.838 1578.92 325.342C1579.56 324.846 1580.33 324.598 1581.25 324.598H1581.41ZM1587.43 324.574C1589.09 324.574 1590.39 325.11 1591.32 326.182C1592.26 327.238 1592.73 328.67 1592.73 330.478V330.862H1584.14C1584.19 331.838 1584.52 332.63 1585.13 333.238C1585.75 333.83 1586.54 334.126 1587.5 334.126C1588.81 334.126 1589.95 333.478 1590.91 332.182L1592.57 333.742C1591.29 335.502 1589.61 336.382 1587.55 336.382C1585.79 336.382 1584.38 335.846 1583.33 334.774C1582.29 333.686 1581.77 332.262 1581.77 330.502C1581.77 328.774 1582.27 327.358 1583.28 326.254C1584.3 325.134 1585.69 324.574 1587.43 324.574ZM1587.29 326.734C1586.47 326.734 1585.8 326.942 1585.27 327.358C1584.74 327.774 1584.41 328.374 1584.26 329.158H1590.19C1590.14 328.39 1589.85 327.798 1589.33 327.382C1588.81 326.95 1588.13 326.734 1587.29 326.734ZM1607.82 319.222C1609.45 319.222 1610.73 319.702 1611.64 320.662C1612.57 321.606 1613.03 322.822 1613.03 324.31C1613.03 325.798 1612.57 327.022 1611.64 327.982C1610.71 328.926 1609.44 329.398 1607.82 329.398H1604.58V336.022H1602.09V319.222H1607.82ZM1607.49 327.046C1608.37 327.046 1609.06 326.814 1609.57 326.35C1610.09 325.87 1610.34 325.19 1610.34 324.31C1610.34 323.43 1610.09 322.758 1609.57 322.294C1609.06 321.814 1608.37 321.574 1607.49 321.574H1604.58V327.046H1607.49ZM1620.6 324.598V327.358H1620.24C1619.07 327.358 1618.19 327.662 1617.6 328.27C1617.01 328.862 1616.71 329.806 1616.71 331.102V336.022H1614.36V324.934H1616.71V327.358H1616.76C1617.03 326.51 1617.48 325.838 1618.11 325.342C1618.75 324.846 1619.52 324.598 1620.43 324.598H1620.6ZM1622.68 326.254C1623.83 325.134 1625.28 324.574 1627.03 324.574C1628.77 324.574 1630.22 325.134 1631.37 326.254C1632.52 327.374 1633.1 328.782 1633.1 330.478C1633.1 332.174 1632.52 333.582 1631.37 334.702C1630.22 335.822 1628.77 336.382 1627.03 336.382C1625.28 336.382 1623.83 335.822 1622.68 334.702C1621.53 333.582 1620.95 332.174 1620.95 330.478C1620.95 328.782 1621.53 327.374 1622.68 326.254ZM1629.59 327.862C1628.94 327.206 1628.08 326.878 1627.03 326.878C1625.97 326.878 1625.11 327.206 1624.43 327.862C1623.78 328.518 1623.45 329.39 1623.45 330.478C1623.45 331.566 1623.78 332.438 1624.43 333.094C1625.11 333.75 1625.97 334.078 1627.03 334.078C1628.08 334.078 1628.94 333.75 1629.59 333.094C1630.27 332.438 1630.6 331.566 1630.6 330.478C1630.6 329.39 1630.27 328.518 1629.59 327.862ZM1635.27 340.822V324.934H1637.62V326.566H1637.67C1638.44 325.238 1639.68 324.574 1641.41 324.574C1642.93 324.574 1644.21 325.11 1645.25 326.182C1646.29 327.254 1646.81 328.686 1646.81 330.478C1646.81 332.27 1646.29 333.702 1645.25 334.774C1644.21 335.846 1642.93 336.382 1641.41 336.382C1639.68 336.382 1638.44 335.718 1637.67 334.39H1637.62V340.822H1635.27ZM1638.44 333.094C1639.06 333.75 1639.88 334.078 1640.91 334.078C1641.93 334.078 1642.76 333.75 1643.38 333.094C1644 332.422 1644.32 331.55 1644.32 330.478C1644.32 329.406 1644 328.542 1643.38 327.886C1642.76 327.214 1641.93 326.878 1640.91 326.878C1639.88 326.878 1639.06 327.214 1638.44 327.886C1637.81 328.542 1637.5 329.406 1637.5 330.478C1637.5 331.55 1637.81 332.422 1638.44 333.094ZM1649.99 326.254C1651.14 325.134 1652.59 324.574 1654.33 324.574C1656.08 324.574 1657.52 325.134 1658.68 326.254C1659.83 327.374 1660.4 328.782 1660.4 330.478C1660.4 332.174 1659.83 333.582 1658.68 334.702C1657.52 335.822 1656.08 336.382 1654.33 336.382C1652.59 336.382 1651.14 335.822 1649.99 334.702C1648.84 333.582 1648.26 332.174 1648.26 330.478C1648.26 328.782 1648.84 327.374 1649.99 326.254ZM1656.9 327.862C1656.24 327.206 1655.39 326.878 1654.33 326.878C1653.28 326.878 1652.41 327.206 1651.74 327.862C1651.08 328.518 1650.76 329.39 1650.76 330.478C1650.76 331.566 1651.08 332.438 1651.74 333.094C1652.41 333.75 1653.28 334.078 1654.33 334.078C1655.39 334.078 1656.24 333.75 1656.9 333.094C1657.57 332.438 1657.91 331.566 1657.91 330.478C1657.91 329.39 1657.57 328.518 1656.9 327.862ZM1666 336.382C1664.34 336.382 1662.84 335.99 1661.49 335.206L1662.55 333.118C1663.76 333.822 1664.94 334.174 1666.08 334.174C1667.23 334.174 1667.8 333.83 1667.8 333.142C1667.8 332.694 1667.41 332.278 1666.63 331.894L1664.61 330.91C1663.06 330.174 1662.28 329.11 1662.28 327.718C1662.28 326.71 1662.63 325.934 1663.32 325.39C1664.02 324.846 1664.99 324.574 1666.22 324.574C1667.5 324.574 1668.78 324.862 1670.06 325.438L1669.1 327.478C1667.98 326.998 1667 326.758 1666.15 326.758C1665.24 326.758 1664.78 327.038 1664.78 327.598C1664.78 327.87 1664.87 328.102 1665.04 328.294C1665.24 328.486 1665.57 328.694 1666.05 328.918L1668.12 329.902C1669.59 330.59 1670.32 331.63 1670.32 333.022C1670.32 334.126 1669.93 334.966 1669.15 335.542C1668.38 336.102 1667.33 336.382 1666 336.382ZM1676.93 336.382C1675.41 336.382 1674.13 335.846 1673.09 334.774C1672.05 333.702 1671.53 332.27 1671.53 330.478C1671.53 328.686 1672.05 327.254 1673.09 326.182C1674.13 325.11 1675.41 324.574 1676.93 324.574C1678.66 324.574 1679.91 325.238 1680.68 326.566H1680.72V324.934H1683.08V336.022H1680.72V334.39H1680.68C1679.91 335.718 1678.66 336.382 1676.93 336.382ZM1674.96 333.094C1675.59 333.75 1676.41 334.078 1677.44 334.078C1678.46 334.078 1679.28 333.75 1679.91 333.094C1680.53 332.422 1680.84 331.55 1680.84 330.478C1680.84 329.406 1680.53 328.542 1679.91 327.886C1679.28 327.214 1678.46 326.878 1677.44 326.878C1676.41 326.878 1675.59 327.214 1674.96 327.886C1674.34 328.542 1674.03 329.406 1674.03 330.478C1674.03 331.55 1674.34 332.422 1674.96 333.094ZM1688.44 319.222V336.022H1686.08V319.222H1688.44Z" fill="#747474"/>
<path opacity="0.5" d="M1516.31 696.857L1519.44 695.651L1519.44 690.143L1516.31 688.937L1516.31 686.885L1528.91 692.033L1528.91 693.761L1516.31 698.909L1516.31 696.857ZM1521.17 690.809L1521.17 694.985L1526.57 692.897L1521.17 690.809ZM1516.04 704.38C1516.04 703.036 1516.45 701.938 1517.27 701.086C1518.08 700.234 1519.15 699.808 1520.47 699.808C1521.79 699.808 1522.86 700.234 1523.67 701.086C1524.49 701.938 1524.9 703.036 1524.9 704.38C1524.9 705.424 1524.62 706.372 1524.05 707.224L1522.56 706.396C1522.98 705.724 1523.19 705.034 1523.19 704.326C1523.19 703.534 1522.93 702.892 1522.41 702.4C1521.91 701.92 1521.26 701.68 1520.47 701.68C1519.68 701.68 1519.02 701.92 1518.51 702.4C1518 702.892 1517.75 703.534 1517.75 704.326C1517.75 705.034 1517.96 705.724 1518.38 706.396L1516.89 707.224C1516.32 706.372 1516.04 705.424 1516.04 704.38ZM1516.04 712.078C1516.04 710.938 1516.44 709.978 1517.25 709.198C1518.05 708.418 1519.13 708.028 1520.47 708.028C1521.81 708.028 1522.89 708.418 1523.69 709.198C1524.5 709.978 1524.9 710.938 1524.9 712.078C1524.9 713.374 1524.4 714.31 1523.4 714.886L1523.4 714.922L1524.63 714.922L1524.63 716.686L1516.31 716.686L1516.31 714.922L1517.54 714.922L1517.54 714.886C1516.54 714.31 1516.04 713.374 1516.04 712.078ZM1518.51 710.602C1518.02 711.07 1517.77 711.688 1517.77 712.456C1517.77 713.224 1518.02 713.842 1518.51 714.31C1519.01 714.778 1519.67 715.012 1520.47 715.012C1521.27 715.012 1521.92 714.778 1522.41 714.31C1522.92 713.842 1523.17 713.224 1523.17 712.456C1523.17 711.688 1522.92 711.07 1522.41 710.602C1521.92 710.134 1521.27 709.9 1520.47 709.9C1519.67 709.9 1519.01 710.134 1518.51 710.602ZM1516.04 722.811C1516.04 721.671 1516.44 720.711 1517.25 719.931C1518.05 719.151 1519.13 718.761 1520.47 718.761C1521.81 718.761 1522.89 719.151 1523.69 719.931C1524.5 720.711 1524.9 721.671 1524.9 722.811C1524.9 724.107 1524.4 725.043 1523.4 725.619L1523.4 725.655L1528.91 725.655L1528.91 727.419L1516.31 727.419L1516.31 725.655L1517.54 725.655L1517.54 725.619C1516.54 725.043 1516.04 724.107 1516.04 722.811ZM1518.51 721.335C1518.02 721.803 1517.77 722.421 1517.77 723.189C1517.77 723.957 1518.02 724.575 1518.51 725.043C1519.01 725.511 1519.67 725.745 1520.47 725.745C1521.27 725.745 1521.92 725.511 1522.41 725.043C1522.92 724.575 1523.17 723.957 1523.17 723.189C1523.17 722.421 1522.92 721.803 1522.41 721.335C1521.92 720.867 1521.27 720.633 1520.47 720.633C1519.67 720.633 1519.01 720.867 1518.51 721.335ZM1524.9 733.83C1524.9 735.078 1524.5 736.05 1523.69 736.746C1522.9 737.454 1521.83 737.808 1520.47 737.808L1520.18 737.808L1520.18 731.364C1519.45 731.4 1518.86 731.646 1518.4 732.102C1517.96 732.57 1517.73 733.164 1517.73 733.884C1517.73 734.868 1518.22 735.72 1519.19 736.44L1518.02 737.682C1516.7 736.722 1516.04 735.468 1516.04 733.92C1516.04 732.6 1516.44 731.544 1517.25 730.752C1518.06 729.972 1519.13 729.582 1520.45 729.582C1521.75 729.582 1522.81 729.96 1523.64 730.716C1524.48 731.484 1524.9 732.522 1524.9 733.83ZM1523.28 733.722C1523.28 733.11 1523.12 732.606 1522.81 732.21C1522.5 731.814 1522.05 731.562 1521.46 731.454L1521.46 735.9C1522.04 735.864 1522.48 735.648 1522.79 735.252C1523.12 734.868 1523.28 734.358 1523.28 733.722ZM1516.31 739.871L1524.63 739.871L1524.63 741.635L1523.33 741.635L1523.33 741.671C1524.38 742.127 1524.9 742.961 1524.9 744.173C1524.9 745.385 1524.33 746.225 1523.21 746.693L1523.21 746.729C1523.77 746.969 1524.19 747.323 1524.47 747.791C1524.75 748.259 1524.9 748.775 1524.9 749.339C1524.9 750.179 1524.62 750.863 1524.05 751.391C1523.49 751.919 1522.62 752.183 1521.46 752.183L1516.31 752.183L1516.31 750.419L1521.37 750.419C1522.55 750.419 1523.13 749.873 1523.13 748.781C1523.13 748.205 1522.93 747.749 1522.52 747.413C1522.13 747.077 1521.5 746.909 1520.63 746.909L1516.31 746.909L1516.31 745.145L1521.37 745.145C1522.55 745.145 1523.13 744.593 1523.13 743.489C1523.13 742.925 1522.93 742.475 1522.52 742.139C1522.11 741.803 1521.48 741.635 1520.61 741.635L1516.31 741.635L1516.31 739.871ZM1528.73 756.752L1526.57 756.752L1526.57 754.592L1528.73 754.592L1528.73 756.752ZM1516.31 754.79L1524.63 754.79L1524.63 756.554L1516.31 756.554L1516.31 754.79ZM1516.04 763.278C1516.04 761.934 1516.45 760.836 1517.27 759.984C1518.08 759.132 1519.15 758.706 1520.47 758.706C1521.79 758.706 1522.86 759.132 1523.67 759.984C1524.49 760.836 1524.9 761.934 1524.9 763.278C1524.9 764.322 1524.62 765.27 1524.05 766.122L1522.56 765.294C1522.98 764.622 1523.19 763.932 1523.19 763.224C1523.19 762.432 1522.93 761.79 1522.41 761.298C1521.91 760.818 1521.26 760.578 1520.47 760.578C1519.68 760.578 1519.02 760.818 1518.51 761.298C1518 761.79 1517.75 762.432 1517.75 763.224C1517.75 763.932 1517.96 764.622 1518.38 765.294L1516.89 766.122C1516.32 765.27 1516.04 764.322 1516.04 763.278ZM1528.91 778.163C1528.91 779.387 1528.55 780.341 1527.83 781.025C1527.12 781.721 1526.21 782.069 1525.1 782.069C1523.98 782.069 1523.06 781.721 1522.34 781.025C1521.63 780.329 1521.28 779.375 1521.28 778.163L1521.28 775.733L1516.31 775.733L1516.31 773.861L1528.91 773.861L1528.91 778.163ZM1523.04 777.911C1523.04 778.571 1523.22 779.093 1523.57 779.477C1523.93 779.861 1524.44 780.053 1525.1 780.053C1525.76 780.053 1526.26 779.861 1526.61 779.477C1526.97 779.093 1527.15 778.571 1527.15 777.911L1527.15 775.733L1523.04 775.733L1523.04 777.911ZM1524.88 788.198L1522.81 788.198L1522.81 787.927C1522.81 787.051 1522.58 786.391 1522.13 785.947C1521.68 785.503 1520.97 785.281 1520 785.281L1516.31 785.281L1516.31 783.517L1524.63 783.517L1524.63 785.281L1522.81 785.281L1522.81 785.317C1523.45 785.521 1523.95 785.857 1524.32 786.325C1524.69 786.806 1524.88 787.388 1524.88 788.072L1524.88 788.198ZM1523.64 790.208C1524.48 791.072 1524.9 792.158 1524.9 793.466C1524.9 794.774 1524.48 795.86 1523.64 796.724C1522.8 797.588 1521.74 798.02 1520.47 798.02C1519.2 798.02 1518.14 797.588 1517.3 796.724C1516.46 795.86 1516.04 794.774 1516.04 793.466C1516.04 792.158 1516.46 791.072 1517.3 790.208C1518.14 789.344 1519.2 788.912 1520.47 788.912C1521.74 788.912 1522.8 789.344 1523.64 790.208ZM1522.43 795.392C1522.92 794.9 1523.17 794.258 1523.17 793.466C1523.17 792.674 1522.92 792.026 1522.43 791.522C1521.94 791.03 1521.29 790.784 1520.47 790.784C1519.65 790.784 1519 791.03 1518.51 791.522C1518.02 792.026 1517.77 792.674 1517.77 793.466C1517.77 794.258 1518.02 794.9 1518.51 795.392C1519 795.896 1519.65 796.148 1520.47 796.148C1521.29 796.148 1521.94 795.896 1522.43 795.392ZM1528.73 802.149L1526.57 802.149L1526.57 799.989L1528.73 799.989L1528.73 802.149ZM1514.26 798.909L1514.26 799.233C1514.26 799.569 1514.34 799.809 1514.49 799.953C1514.65 800.109 1514.91 800.187 1515.27 800.187L1524.63 800.187L1524.63 801.951L1515.09 801.951C1514.31 801.951 1513.71 801.735 1513.29 801.303C1512.87 800.883 1512.66 800.283 1512.66 799.503L1512.66 798.909L1514.26 798.909ZM1524.9 808.351C1524.9 809.599 1524.5 810.571 1523.69 811.267C1522.9 811.975 1521.83 812.329 1520.47 812.329L1520.18 812.329L1520.18 805.885C1519.45 805.921 1518.86 806.167 1518.4 806.623C1517.96 807.091 1517.73 807.685 1517.73 808.405C1517.73 809.389 1518.22 810.241 1519.19 810.961L1518.02 812.203C1516.7 811.243 1516.04 809.989 1516.04 808.441C1516.04 807.121 1516.44 806.065 1517.25 805.273C1518.06 804.493 1519.13 804.103 1520.45 804.103C1521.75 804.103 1522.81 804.481 1523.64 805.237C1524.48 806.005 1524.9 807.043 1524.9 808.351ZM1523.28 808.243C1523.28 807.631 1523.12 807.127 1522.81 806.731C1522.5 806.335 1522.05 806.083 1521.46 805.975L1521.46 810.421C1522.04 810.385 1522.48 810.169 1522.79 809.773C1523.12 809.389 1523.28 808.879 1523.28 808.243ZM1516.04 818.424C1516.04 817.08 1516.45 815.982 1517.27 815.13C1518.08 814.278 1519.15 813.852 1520.47 813.852C1521.79 813.852 1522.86 814.278 1523.67 815.13C1524.49 815.982 1524.9 817.08 1524.9 818.424C1524.9 819.468 1524.62 820.416 1524.05 821.268L1522.56 820.44C1522.98 819.768 1523.19 819.078 1523.19 818.37C1523.19 817.578 1522.93 816.936 1522.41 816.444C1521.91 815.964 1521.26 815.724 1520.47 815.724C1519.68 815.724 1519.02 815.964 1518.51 816.444C1518 816.936 1517.75 817.578 1517.75 818.37C1517.75 819.078 1517.96 819.768 1518.38 820.44L1516.89 821.268C1516.32 820.416 1516.04 819.468 1516.04 818.424ZM1523.13 827.278L1523.13 825.586L1518.78 825.586C1518.2 825.586 1517.91 825.874 1517.91 826.45L1517.91 826.882L1516.29 826.882L1516.29 826.072C1516.29 825.34 1516.48 824.782 1516.85 824.398C1517.22 824.014 1517.75 823.822 1518.44 823.822L1523.13 823.822L1523.13 822.346L1524.63 822.346L1524.63 823.822L1527.96 823.822L1527.96 825.586L1524.63 825.586L1524.63 827.278L1523.13 827.278Z" fill="white"/>
<path opacity="0.5" d="M1516.04 871.877C1516.04 869.873 1516.65 868.247 1517.86 866.999C1519.07 865.751 1520.66 865.127 1522.61 865.127C1524.57 865.127 1526.15 865.751 1527.36 866.999C1528.58 868.247 1529.18 869.873 1529.18 871.877C1529.18 873.557 1528.72 875.039 1527.8 876.323L1526.16 875.171C1526.9 874.151 1527.27 873.029 1527.27 871.805C1527.27 870.461 1526.85 869.351 1526 868.475C1525.14 867.611 1524.02 867.179 1522.61 867.179C1521.21 867.179 1520.08 867.611 1519.23 868.475C1518.38 869.351 1517.95 870.461 1517.95 871.805C1517.95 873.029 1518.32 874.151 1519.07 875.171L1517.43 876.323C1516.5 875.039 1516.04 873.557 1516.04 871.877ZM1528.91 880.151L1516.31 880.151L1516.31 878.387L1528.91 878.387L1528.91 880.151ZM1528.73 884.894L1526.57 884.894L1526.57 882.734L1528.73 882.734L1528.73 884.894ZM1516.31 882.932L1524.63 882.932L1524.63 884.696L1516.31 884.696L1516.31 882.932ZM1524.9 891.096C1524.9 892.344 1524.5 893.316 1523.69 894.012C1522.9 894.72 1521.83 895.074 1520.47 895.074L1520.18 895.074L1520.18 888.63C1519.45 888.666 1518.86 888.912 1518.4 889.368C1517.96 889.836 1517.73 890.43 1517.73 891.15C1517.73 892.134 1518.22 892.986 1519.19 893.706L1518.02 894.948C1516.7 893.988 1516.04 892.734 1516.04 891.186C1516.04 889.866 1516.44 888.81 1517.25 888.018C1518.06 887.238 1519.13 886.848 1520.45 886.848C1521.75 886.848 1522.81 887.226 1523.64 887.982C1524.48 888.75 1524.9 889.788 1524.9 891.096ZM1523.28 890.988C1523.28 890.376 1523.12 889.872 1522.81 889.476C1522.5 889.08 1522.05 888.828 1521.46 888.72L1521.46 893.166C1522.04 893.13 1522.48 892.914 1522.79 892.518C1523.12 892.134 1523.28 891.624 1523.28 890.988ZM1524.9 901.655C1524.9 902.615 1524.62 903.377 1524.05 903.941C1523.5 904.505 1522.62 904.787 1521.42 904.787L1516.31 904.787L1516.31 903.023L1521.12 903.023C1522.46 903.023 1523.13 902.387 1523.13 901.115C1523.13 899.639 1522.19 898.901 1520.29 898.901L1516.31 898.901L1516.31 897.137L1524.63 897.137L1524.63 898.901L1523.37 898.901L1523.37 898.937C1524.39 899.513 1524.9 900.419 1524.9 901.655ZM1523.13 910.973L1523.13 909.281L1518.78 909.281C1518.2 909.281 1517.91 909.569 1517.91 910.145L1517.91 910.577L1516.29 910.577L1516.29 909.767C1516.29 909.035 1516.48 908.477 1516.85 908.093C1517.22 907.709 1517.75 907.517 1518.44 907.517L1523.13 907.517L1523.13 906.041L1524.63 906.041L1524.63 907.517L1527.96 907.517L1527.96 909.281L1524.63 909.281L1524.63 910.973L1523.13 910.973ZM1528.91 920.614L1516.31 920.614L1516.31 918.706L1528.91 918.706L1528.91 920.614ZM1528.91 927.654C1528.91 929.502 1528.34 931.02 1527.2 932.208C1526.06 933.396 1524.53 933.99 1522.61 933.99C1520.69 933.99 1519.16 933.396 1518.02 932.208C1516.88 931.02 1516.31 929.502 1516.31 927.654L1516.31 923.586L1528.91 923.586L1528.91 927.654ZM1527.15 927.636L1527.15 925.458L1518.08 925.458L1518.08 927.636C1518.08 928.908 1518.47 929.94 1519.26 930.732C1520.06 931.536 1521.17 931.938 1522.61 931.938C1524.05 931.938 1525.17 931.536 1525.96 930.732C1526.75 929.94 1527.15 928.908 1527.15 927.636ZM1516.31 944.58L1519.44 943.374L1519.44 937.866L1516.31 936.66L1516.31 934.608L1528.91 939.756L1528.91 941.484L1516.31 946.632L1516.31 944.58ZM1521.17 938.532L1521.17 942.708L1526.57 940.62L1521.17 938.532ZM1523.28 954.096L1523.28 960.072L1522.52 960.072C1521.69 960.072 1520.9 959.94 1520.13 959.676C1519.37 959.412 1518.68 959.028 1518.06 958.524C1517.45 958.02 1516.95 957.354 1516.58 956.526C1516.22 955.698 1516.04 954.768 1516.04 953.736C1516.04 951.804 1516.64 950.208 1517.84 948.948C1519.04 947.7 1520.62 947.076 1522.58 947.076C1524.52 947.076 1526.1 947.694 1527.33 948.93C1528.56 950.166 1529.18 951.774 1529.18 953.754C1529.18 955.65 1528.62 957.264 1527.49 958.596L1525.92 957.318C1526.82 956.334 1527.27 955.116 1527.27 953.664C1527.27 952.308 1526.83 951.21 1525.94 950.37C1525.07 949.542 1523.95 949.128 1522.59 949.128C1521.24 949.128 1520.12 949.554 1519.25 950.406C1518.38 951.27 1517.95 952.398 1517.95 953.79C1517.95 955.074 1518.31 956.082 1519.03 956.814C1519.75 957.558 1520.58 957.972 1521.51 958.056L1521.51 954.096L1523.28 954.096ZM1528.91 964.144L1516.31 964.144L1516.31 962.236L1528.91 962.236L1528.91 964.144ZM1527.33 968.358C1528.56 969.606 1529.18 971.172 1529.18 973.056C1529.18 974.94 1528.56 976.506 1527.33 977.754C1526.1 979.002 1524.53 979.626 1522.61 979.626C1520.69 979.626 1519.11 979.002 1517.88 977.754C1516.65 976.506 1516.04 974.94 1516.04 973.056C1516.04 971.172 1516.65 969.606 1517.88 968.358C1519.11 967.11 1520.69 966.486 1522.61 966.486C1524.53 966.486 1526.1 967.11 1527.33 968.358ZM1525.96 976.314C1526.84 975.474 1527.27 974.388 1527.27 973.056C1527.27 971.724 1526.84 970.638 1525.96 969.798C1525.08 968.958 1523.97 968.538 1522.61 968.538C1521.26 968.538 1520.14 968.958 1519.26 969.798C1518.39 970.638 1517.95 971.724 1517.95 973.056C1517.95 974.388 1518.39 975.474 1519.26 976.314C1520.14 977.154 1521.26 977.574 1522.61 977.574C1523.97 977.574 1525.08 977.154 1525.96 976.314Z" fill="white"/>
<path d="M1199.94 318.862C1201.43 318.862 1202.91 319.238 1204.38 319.99L1203.25 322.366C1202.1 321.71 1200.97 321.382 1199.87 321.382C1198.59 321.382 1197.95 321.862 1197.95 322.822C1197.95 323.462 1198.39 324.126 1199.27 324.814L1202.27 327.118C1203.16 327.806 1203.82 328.51 1204.23 329.23C1204.65 329.934 1204.86 330.75 1204.86 331.678C1204.86 333.182 1204.37 334.342 1203.39 335.158C1202.42 335.974 1201.11 336.382 1199.48 336.382C1197.5 336.382 1195.69 335.862 1194.06 334.822L1195.19 332.47C1196.77 333.382 1198.21 333.838 1199.51 333.838C1200.37 333.838 1201.03 333.654 1201.47 333.286C1201.94 332.902 1202.17 332.414 1202.17 331.822C1202.17 331.374 1202.03 330.958 1201.74 330.574C1201.47 330.19 1201.02 329.75 1200.39 329.254L1197.54 326.998C1196 325.798 1195.23 324.438 1195.23 322.918C1195.23 321.67 1195.65 320.686 1196.48 319.966C1197.31 319.23 1198.47 318.862 1199.94 318.862ZM1209.61 319.222V326.614H1209.66C1210.43 325.254 1211.63 324.574 1213.28 324.574C1214.55 324.574 1215.55 324.95 1216.31 325.702C1217.07 326.438 1217.46 327.606 1217.46 329.206V336.022H1215.11V329.614C1215.11 327.822 1214.26 326.926 1212.56 326.926C1210.59 326.926 1209.61 328.19 1209.61 330.718V336.022H1207.26V319.222H1209.61ZM1221.22 326.254C1222.38 325.134 1223.82 324.574 1225.57 324.574C1227.31 324.574 1228.76 325.134 1229.91 326.254C1231.06 327.374 1231.64 328.782 1231.64 330.478C1231.64 332.174 1231.06 333.582 1229.91 334.702C1228.76 335.822 1227.31 336.382 1225.57 336.382C1223.82 336.382 1222.38 335.822 1221.22 334.702C1220.07 333.582 1219.5 332.174 1219.5 330.478C1219.5 328.782 1220.07 327.374 1221.22 326.254ZM1228.14 327.862C1227.48 327.206 1226.62 326.878 1225.57 326.878C1224.51 326.878 1223.65 327.206 1222.98 327.862C1222.32 328.518 1221.99 329.39 1221.99 330.478C1221.99 331.566 1222.32 332.438 1222.98 333.094C1223.65 333.75 1224.51 334.078 1225.57 334.078C1226.62 334.078 1227.48 333.75 1228.14 333.094C1228.81 332.438 1229.14 331.566 1229.14 330.478C1229.14 329.39 1228.81 328.518 1228.14 327.862ZM1233.81 340.822V324.934H1236.16V326.566H1236.21C1236.98 325.238 1238.23 324.574 1239.95 324.574C1241.47 324.574 1242.75 325.11 1243.79 326.182C1244.83 327.254 1245.35 328.686 1245.35 330.478C1245.35 332.27 1244.83 333.702 1243.79 334.774C1242.75 335.846 1241.47 336.382 1239.95 336.382C1238.23 336.382 1236.98 335.718 1236.21 334.39H1236.16V340.822H1233.81ZM1236.98 333.094C1237.6 333.75 1238.43 334.078 1239.45 334.078C1240.47 334.078 1241.3 333.75 1241.92 333.094C1242.55 332.422 1242.86 331.55 1242.86 330.478C1242.86 329.406 1242.55 328.542 1241.92 327.886C1241.3 327.214 1240.47 326.878 1239.45 326.878C1238.43 326.878 1237.6 327.214 1236.98 327.886C1236.35 328.542 1236.04 329.406 1236.04 330.478C1236.04 331.55 1236.35 332.422 1236.98 333.094ZM1250.26 319.462V322.342H1247.38V319.462H1250.26ZM1247.64 336.022V324.934H1249.99V336.022H1247.64ZM1258.14 321.166C1256.8 321.166 1256.13 321.886 1256.13 323.326V324.934H1258.31V326.926H1256.13V336.022H1253.77V326.926H1252.02V324.934H1253.77V323.398C1253.77 322.022 1254.14 320.942 1254.88 320.158C1255.63 319.374 1256.69 318.982 1258.05 318.982H1258.5V321.166H1258.14ZM1267.67 324.934H1270.26L1263.35 340.822H1260.85L1263.51 335.014L1258.86 324.934H1261.67L1264.71 332.206L1267.67 324.934ZM1284.29 319.222C1285.93 319.222 1287.2 319.702 1288.11 320.662C1289.04 321.606 1289.5 322.822 1289.5 324.31C1289.5 325.798 1289.04 327.022 1288.11 327.982C1287.18 328.926 1285.91 329.398 1284.29 329.398H1281.05V336.022H1278.56V319.222H1284.29ZM1283.96 327.046C1284.84 327.046 1285.53 326.814 1286.05 326.35C1286.56 325.87 1286.81 325.19 1286.81 324.31C1286.81 323.43 1286.56 322.758 1286.05 322.294C1285.53 321.814 1284.84 321.574 1283.96 321.574H1281.05V327.046H1283.96ZM1297.07 324.598V327.358H1296.71C1295.55 327.358 1294.67 327.662 1294.07 328.27C1293.48 328.862 1293.19 329.806 1293.19 331.102V336.022H1290.83V324.934H1293.19V327.358H1293.23C1293.51 326.51 1293.95 325.838 1294.58 325.342C1295.22 324.846 1295.99 324.598 1296.91 324.598H1297.07ZM1299.15 326.254C1300.31 325.134 1301.75 324.574 1303.5 324.574C1305.24 324.574 1306.69 325.134 1307.84 326.254C1308.99 327.374 1309.57 328.782 1309.57 330.478C1309.57 332.174 1308.99 333.582 1307.84 334.702C1306.69 335.822 1305.24 336.382 1303.5 336.382C1301.75 336.382 1300.31 335.822 1299.15 334.702C1298 333.582 1297.43 332.174 1297.43 330.478C1297.43 328.782 1298 327.374 1299.15 326.254ZM1306.07 327.862C1305.41 327.206 1304.55 326.878 1303.5 326.878C1302.44 326.878 1301.58 327.206 1300.91 327.862C1300.25 328.518 1299.92 329.39 1299.92 330.478C1299.92 331.566 1300.25 332.438 1300.91 333.094C1301.58 333.75 1302.44 334.078 1303.5 334.078C1304.55 334.078 1305.41 333.75 1306.07 333.094C1306.74 332.438 1307.07 331.566 1307.07 330.478C1307.07 329.39 1306.74 328.518 1306.07 327.862ZM1314.48 319.462V322.342H1311.6V319.462H1314.48ZM1310.16 338.758H1310.59C1311.04 338.758 1311.36 338.654 1311.55 338.446C1311.76 338.238 1311.86 337.894 1311.86 337.414V324.934H1314.21V337.654C1314.21 338.694 1313.92 339.494 1313.35 340.054C1312.79 340.614 1311.99 340.894 1310.95 340.894H1310.16V338.758ZM1322.15 324.574C1323.81 324.574 1325.11 325.11 1326.03 326.182C1326.98 327.238 1327.45 328.67 1327.45 330.478V330.862H1318.86C1318.91 331.838 1319.23 332.63 1319.84 333.238C1320.47 333.83 1321.26 334.126 1322.22 334.126C1323.53 334.126 1324.67 333.478 1325.63 332.182L1327.28 333.742C1326 335.502 1324.33 336.382 1322.27 336.382C1320.51 336.382 1319.1 335.846 1318.04 334.774C1317 333.686 1316.48 332.262 1316.48 330.502C1316.48 328.774 1316.99 327.358 1317.99 326.254C1319.02 325.134 1320.4 324.574 1322.15 324.574ZM1322 326.734C1321.19 326.734 1320.51 326.942 1319.99 327.358C1319.46 327.774 1319.12 328.374 1318.98 329.158H1324.91C1324.86 328.39 1324.57 327.798 1324.04 327.382C1323.53 326.95 1322.85 326.734 1322 326.734ZM1334.98 336.382C1333.18 336.382 1331.72 335.838 1330.58 334.75C1329.45 333.662 1328.88 332.238 1328.88 330.478C1328.88 328.718 1329.45 327.294 1330.58 326.206C1331.72 325.118 1333.18 324.574 1334.98 324.574C1336.37 324.574 1337.63 324.95 1338.77 325.702L1337.66 327.694C1336.77 327.134 1335.85 326.854 1334.9 326.854C1333.85 326.854 1332.99 327.198 1332.34 327.886C1331.7 328.558 1331.38 329.422 1331.38 330.478C1331.38 331.534 1331.7 332.406 1332.34 333.094C1332.99 333.766 1333.85 334.102 1334.9 334.102C1335.85 334.102 1336.77 333.822 1337.66 333.262L1338.77 335.254C1337.63 336.006 1336.37 336.382 1334.98 336.382ZM1346.18 326.926H1343.93V332.734C1343.93 333.502 1344.31 333.886 1345.08 333.886H1345.65V336.046H1344.57C1343.6 336.046 1342.85 335.798 1342.34 335.302C1341.83 334.806 1341.57 334.102 1341.57 333.19V326.926H1339.61V324.934H1341.57V320.494H1343.93V324.934H1346.18V326.926ZM1359.85 318.862C1361.34 318.862 1362.82 319.238 1364.29 319.99L1363.16 322.366C1362.01 321.71 1360.88 321.382 1359.78 321.382C1358.5 321.382 1357.86 321.862 1357.86 322.822C1357.86 323.462 1358.3 324.126 1359.18 324.814L1362.18 327.118C1363.08 327.806 1363.73 328.51 1364.15 329.23C1364.56 329.934 1364.77 330.75 1364.77 331.678C1364.77 333.182 1364.28 334.342 1363.31 335.158C1362.33 335.974 1361.03 336.382 1359.4 336.382C1357.41 336.382 1355.6 335.862 1353.97 334.822L1355.1 332.47C1356.68 333.382 1358.12 333.838 1359.42 333.838C1360.28 333.838 1360.94 333.654 1361.39 333.286C1361.85 332.902 1362.08 332.414 1362.08 331.822C1362.08 331.374 1361.94 330.958 1361.65 330.574C1361.38 330.19 1360.93 329.75 1360.31 329.254L1357.45 326.998C1355.92 325.798 1355.15 324.438 1355.15 322.918C1355.15 321.67 1355.56 320.686 1356.4 319.966C1357.23 319.23 1358.38 318.862 1359.85 318.862ZM1370.99 336.382C1369.8 336.382 1368.83 335.998 1368.06 335.23C1367.31 334.446 1366.93 333.254 1366.93 331.654V324.934H1369.33V331.414C1369.33 332.31 1369.53 332.982 1369.93 333.43C1370.35 333.878 1370.92 334.102 1371.66 334.102C1373.52 334.102 1374.44 332.814 1374.44 330.238V324.934H1376.8V336.022H1374.44V334.342H1374.4C1373.72 335.702 1372.59 336.382 1370.99 336.382ZM1385.95 336.382C1384.22 336.382 1382.97 335.718 1382.21 334.39H1382.16V336.022H1379.81V319.222H1382.16V326.566H1382.21C1382.97 325.238 1384.22 324.574 1385.95 324.574C1387.47 324.574 1388.75 325.11 1389.79 326.182C1390.83 327.254 1391.35 328.686 1391.35 330.478C1391.35 332.27 1390.83 333.702 1389.79 334.774C1388.75 335.846 1387.47 336.382 1385.95 336.382ZM1382.97 333.094C1383.6 333.75 1384.42 334.078 1385.45 334.078C1386.47 334.078 1387.29 333.75 1387.92 333.094C1388.54 332.422 1388.85 331.55 1388.85 330.478C1388.85 329.406 1388.54 328.542 1387.92 327.886C1387.29 327.214 1386.47 326.878 1385.45 326.878C1384.42 326.878 1383.6 327.214 1382.97 327.886C1382.35 328.542 1382.04 329.406 1382.04 330.478C1382.04 331.55 1382.35 332.422 1382.97 333.094ZM1393.51 336.022V324.934H1395.87V326.662H1395.91C1396.52 325.27 1397.63 324.574 1399.25 324.574C1400.87 324.574 1401.99 325.326 1402.61 326.83H1402.66C1402.98 326.078 1403.45 325.518 1404.07 325.15C1404.7 324.766 1405.39 324.574 1406.14 324.574C1407.26 324.574 1408.17 324.95 1408.87 325.702C1409.58 326.454 1409.93 327.606 1409.93 329.158V336.022H1407.58V329.278C1407.58 327.71 1406.85 326.926 1405.39 326.926C1404.63 326.926 1404.02 327.198 1403.57 327.742C1403.12 328.27 1402.9 329.11 1402.9 330.262V336.022H1400.55V329.278C1400.55 327.71 1399.81 326.926 1398.34 326.926C1397.59 326.926 1396.99 327.198 1396.54 327.742C1396.09 328.286 1395.87 329.134 1395.87 330.286V336.022H1393.51ZM1415.42 319.462V322.342H1412.54V319.462H1415.42ZM1412.81 336.022V324.934H1415.16V336.022H1412.81ZM1421.23 336.382C1419.56 336.382 1418.06 335.99 1416.71 335.206L1417.77 333.118C1418.99 333.822 1420.16 334.174 1421.3 334.174C1422.45 334.174 1423.03 333.83 1423.03 333.142C1423.03 332.694 1422.63 332.278 1421.85 331.894L1419.83 330.91C1418.28 330.174 1417.51 329.11 1417.51 327.718C1417.51 326.71 1417.85 325.934 1418.54 325.39C1419.24 324.846 1420.21 324.574 1421.44 324.574C1422.72 324.574 1424 324.862 1425.28 325.438L1424.32 327.478C1423.2 326.998 1422.22 326.758 1421.37 326.758C1420.46 326.758 1420 327.038 1420 327.598C1420 327.87 1420.09 328.102 1420.27 328.294C1420.46 328.486 1420.79 328.694 1421.27 328.918L1423.34 329.902C1424.81 330.59 1425.55 331.63 1425.55 333.022C1425.55 334.126 1425.15 334.966 1424.37 335.542C1423.6 336.102 1422.55 336.382 1421.23 336.382ZM1430.91 336.382C1429.24 336.382 1427.74 335.99 1426.39 335.206L1427.45 333.118C1428.67 333.822 1429.84 334.174 1430.98 334.174C1432.13 334.174 1432.71 333.83 1432.71 333.142C1432.71 332.694 1432.31 332.278 1431.53 331.894L1429.51 330.91C1427.96 330.174 1427.19 329.11 1427.19 327.718C1427.19 326.71 1427.53 325.934 1428.22 325.39C1428.92 324.846 1429.89 324.574 1431.12 324.574C1432.4 324.574 1433.68 324.862 1434.96 325.438L1434 327.478C1432.88 326.998 1431.9 326.758 1431.05 326.758C1430.14 326.758 1429.68 327.038 1429.68 327.598C1429.68 327.87 1429.77 328.102 1429.95 328.294C1430.14 328.486 1430.47 328.694 1430.95 328.918L1433.02 329.902C1434.49 330.59 1435.23 331.63 1435.23 333.022C1435.23 334.126 1434.83 334.966 1434.05 335.542C1433.28 336.102 1432.23 336.382 1430.91 336.382ZM1439.89 319.462V322.342H1437.01V319.462H1439.89ZM1437.27 336.022V324.934H1439.63V336.022H1437.27ZM1443.62 326.254C1444.78 325.134 1446.22 324.574 1447.97 324.574C1449.71 324.574 1451.16 325.134 1452.31 326.254C1453.46 327.374 1454.04 328.782 1454.04 330.478C1454.04 332.174 1453.46 333.582 1452.31 334.702C1451.16 335.822 1449.71 336.382 1447.97 336.382C1446.22 336.382 1444.78 335.822 1443.62 334.702C1442.47 333.582 1441.9 332.174 1441.9 330.478C1441.9 328.782 1442.47 327.374 1443.62 326.254ZM1450.54 327.862C1449.88 327.206 1449.02 326.878 1447.97 326.878C1446.91 326.878 1446.05 327.206 1445.38 327.862C1444.72 328.518 1444.39 329.39 1444.39 330.478C1444.39 331.566 1444.72 332.438 1445.38 333.094C1446.05 333.75 1446.91 334.078 1447.97 334.078C1449.02 334.078 1449.88 333.75 1450.54 333.094C1451.21 332.438 1451.54 331.566 1451.54 330.478C1451.54 329.39 1451.21 328.518 1450.54 327.862ZM1462.23 324.574C1463.51 324.574 1464.53 324.95 1465.28 325.702C1466.03 326.438 1466.41 327.606 1466.41 329.206V336.022H1464.06V329.614C1464.06 327.822 1463.21 326.926 1461.51 326.926C1459.55 326.926 1458.56 328.19 1458.56 330.718V336.022H1456.21V324.934H1458.56V326.614H1458.61C1459.38 325.254 1460.59 324.574 1462.23 324.574Z" fill="white"/>
<line x1="1493.01" y1="-522" x2="1493.01" y2="156.589" stroke="white"/>
</g>
<defs>
<clipPath id="clip0_1968_485">
<rect width="1920" height="1080" fill="white" transform="translate(0.998047)"/>
</clipPath>
<clipPath id="clip1_1968_485">
<rect width="840" height="134" fill="white" transform="translate(788.998 159.589)"/>
</clipPath>
</defs>
</svg>
