<svg width="1920" height="1080" viewBox="0 0 1920 1080" fill="none" xmlns="http://www.w3.org/2000/svg">
<g clip-path="url(#clip0_1968_498)">
<rect width="1920" height="1080" fill="#1A1E26"/>
<path d="M179.052 194.072C179.052 183.384 182.252 174.648 188.652 167.864C195.116 161.144 203.596 157.784 214.092 157.784C224.588 157.784 233.036 161.144 239.436 167.864C245.9 174.648 249.132 183.384 249.132 194.072C249.132 203.032 246.668 211.032 241.74 218.072L230.988 210.968C234.7 205.656 236.556 199.992 236.556 193.976C236.556 187.32 234.508 181.848 230.412 177.56C226.316 173.336 220.876 171.224 214.092 171.224C207.308 171.224 201.868 173.336 197.772 177.56C193.676 181.848 191.628 187.32 191.628 193.976C191.628 199.992 193.484 205.656 197.196 210.968L186.444 218.072C181.516 211.032 179.052 203.032 179.052 194.072ZM219.66 226.354C224.076 231.026 226.284 236.914 226.284 244.018C226.284 251.122 224.076 256.978 219.66 261.586C215.244 266.258 209.58 268.594 202.668 268.594C195.756 268.594 190.092 266.258 185.676 261.586C181.26 256.978 179.052 251.122 179.052 244.018C179.052 236.914 181.26 231.026 185.676 226.354C190.092 221.746 195.756 219.442 202.668 219.442C209.58 219.442 215.244 221.746 219.66 226.354ZM211.692 252.946C213.996 250.642 215.148 247.666 215.148 244.018C215.148 240.37 213.996 237.362 211.692 234.994C209.452 232.69 206.444 231.538 202.668 231.538C198.892 231.538 195.852 232.69 193.548 234.994C191.308 237.362 190.188 240.37 190.188 244.018C190.188 247.666 191.308 250.642 193.548 252.946C195.852 255.25 198.892 256.402 202.668 256.402C206.444 256.402 209.452 255.25 211.692 252.946ZM226.284 301.568C226.284 306.688 224.748 310.752 221.676 313.76C218.668 316.768 214.06 318.272 207.852 318.272L180.492 318.272L180.492 306.464L205.068 306.464C211.916 306.464 215.34 303.424 215.34 297.344C215.34 290.432 210.956 286.976 202.188 286.976L180.492 286.976L180.492 275.264L224.844 275.264L224.844 286.88L218.124 286.88L218.124 287.072C223.564 290.272 226.284 295.104 226.284 301.568ZM214.956 350.081L214.956 340.961L196.332 340.961C194.54 340.961 193.26 341.313 192.492 342.017C191.724 342.721 191.34 343.937 191.34 345.665L191.34 347.681L180.396 347.681L180.396 342.497C180.396 338.209 181.484 334.913 183.66 332.609C185.9 330.305 189.196 329.153 193.548 329.153L214.956 329.153L214.956 320.993L224.844 320.993L224.844 329.153L242.604 329.153L242.604 340.961L224.844 340.961L224.844 350.081L214.956 350.081ZM226.284 374.696C226.284 381.48 224.204 386.76 220.044 390.536C215.948 394.312 210.124 396.2 202.572 396.2L200.268 396.2L200.268 363.08C196.876 363.4 194.22 364.68 192.3 366.92C190.444 369.224 189.516 372.104 189.516 375.56C189.516 380.36 191.532 384.776 195.564 388.808L187.02 394.76C181.708 389 179.052 382.6 179.052 375.56C179.052 368.328 181.196 362.536 185.484 358.184C189.772 353.832 195.468 351.656 202.572 351.656C209.676 351.656 215.404 353.768 219.756 357.992C224.108 362.216 226.284 367.784 226.284 374.696ZM216.78 374.12C216.78 367.912 213.804 364.328 207.852 363.368L207.852 384.296C210.668 384.104 212.844 383.08 214.38 381.224C215.98 379.432 216.78 377.064 216.78 374.12ZM226.284 429C226.284 434.12 224.748 438.184 221.676 441.192C218.668 444.2 214.06 445.704 207.852 445.704L180.492 445.704L180.492 433.896L205.068 433.896C211.916 433.896 215.34 430.856 215.34 424.776C215.34 417.864 210.956 414.408 202.188 414.408L180.492 414.408L180.492 402.696L224.844 402.696L224.844 414.312L218.124 414.312L218.124 414.504C223.564 417.704 226.284 422.536 226.284 429ZM214.956 477.513L214.956 468.393L196.332 468.393C194.54 468.393 193.26 468.745 192.492 469.449C191.724 470.153 191.34 471.369 191.34 473.097L191.34 475.113L180.396 475.113L180.396 469.929C180.396 465.641 181.484 462.345 183.66 460.041C185.9 457.737 189.196 456.585 193.548 456.585L214.956 456.585L214.956 448.425L224.844 448.425L224.844 456.585L242.604 456.585L242.604 468.393L224.844 468.393L224.844 477.513L214.956 477.513Z" fill="white"/>
<path d="M341.683 798.415C339.011 798.415 336.843 797.607 335.179 795.991C333.515 794.375 332.683 792.263 332.683 789.655C332.683 787.047 333.515 784.935 335.179 783.319C336.843 781.703 339.011 780.895 341.683 780.895C343.923 780.895 345.899 781.511 347.611 782.743L346.075 784.927C344.715 783.935 343.219 783.439 341.587 783.439C339.795 783.439 338.315 784.007 337.147 785.143C335.995 786.279 335.419 787.783 335.419 789.655C335.419 791.527 335.995 793.031 337.147 794.167C338.315 795.303 339.795 795.871 341.587 795.871C343.219 795.871 344.715 795.375 346.075 794.383L347.611 796.567C345.899 797.799 343.923 798.415 341.683 798.415ZM350.181 788.287C351.333 787.167 352.781 786.607 354.525 786.607C356.269 786.607 357.717 787.167 358.869 788.287C360.021 789.407 360.597 790.815 360.597 792.511C360.597 794.207 360.021 795.615 358.869 796.735C357.717 797.855 356.269 798.415 354.525 798.415C352.781 798.415 351.333 797.855 350.181 796.735C349.029 795.615 348.453 794.207 348.453 792.511C348.453 790.815 349.029 789.407 350.181 788.287ZM357.093 789.895C356.437 789.239 355.581 788.911 354.525 788.911C353.469 788.911 352.605 789.239 351.933 789.895C351.277 790.551 350.949 791.423 350.949 792.511C350.949 793.599 351.277 794.471 351.933 795.127C352.605 795.783 353.469 796.111 354.525 796.111C355.581 796.111 356.437 795.783 357.093 795.127C357.765 794.471 358.101 793.599 358.101 792.511C358.101 791.423 357.765 790.551 357.093 789.895ZM368.791 786.607C370.071 786.607 371.087 786.983 371.839 787.735C372.591 788.471 372.967 789.639 372.967 791.239V798.055H370.615V791.647C370.615 789.855 369.767 788.959 368.071 788.959C366.103 788.959 365.119 790.223 365.119 792.751V798.055H362.767V786.967H365.119V788.647H365.167C365.935 787.287 367.143 786.607 368.791 786.607ZM380.615 788.959H378.359V794.767C378.359 795.535 378.743 795.919 379.511 795.919H380.087V798.079H379.007C378.031 798.079 377.287 797.831 376.775 797.335C376.263 796.839 376.007 796.135 376.007 795.223V788.959H374.039V786.967H376.007V782.527H378.359V786.967H380.615V788.959ZM387 786.607C388.664 786.607 389.96 787.143 390.888 788.215C391.832 789.271 392.304 790.703 392.304 792.511V792.895H383.712C383.76 793.871 384.088 794.663 384.696 795.271C385.32 795.863 386.112 796.159 387.072 796.159C388.384 796.159 389.52 795.511 390.48 794.215L392.136 795.775C390.856 797.535 389.184 798.415 387.12 798.415C385.36 798.415 383.952 797.879 382.896 796.807C381.856 795.719 381.336 794.295 381.336 792.535C381.336 790.807 381.84 789.391 382.848 788.287C383.872 787.167 385.256 786.607 387 786.607ZM386.856 788.767C386.04 788.767 385.368 788.975 384.84 789.391C384.312 789.807 383.976 790.407 383.832 791.191H389.76C389.712 790.423 389.424 789.831 388.896 789.415C388.384 788.983 387.704 788.767 386.856 788.767ZM400.907 798.055L398.099 794.071L395.291 798.055H392.291L396.683 792.223L392.915 786.967H395.939L398.099 790.423L400.259 786.967H403.283L399.515 792.223L403.907 798.055H400.907ZM410.615 788.959H408.359V794.767C408.359 795.535 408.743 795.919 409.511 795.919H410.087V798.079H409.007C408.031 798.079 407.287 797.831 406.775 797.335C406.263 796.839 406.007 796.135 406.007 795.223V788.959H404.039V786.967H406.007V782.527H408.359V786.967H410.615V788.959Z" fill="white"/>
<path d="M238.067 781.255V798.055H235.523V781.255H238.067Z" fill="white"/>
<path d="M454.747 815.508C456.379 815.508 457.651 815.988 458.563 816.948C459.491 817.892 459.955 819.108 459.955 820.596C459.955 822.084 459.491 823.308 458.563 824.268C457.635 825.212 456.363 825.684 454.747 825.684H451.507V832.308H449.011V815.508H454.747ZM454.411 823.332C455.291 823.332 455.987 823.1 456.499 822.636C457.011 822.156 457.267 821.476 457.267 820.596C457.267 819.716 457.011 819.044 456.499 818.58C455.987 818.1 455.291 817.86 454.411 817.86H451.507V823.332H454.411ZM467.527 820.884V823.644H467.167C465.999 823.644 465.119 823.948 464.527 824.556C463.935 825.148 463.639 826.092 463.639 827.388V832.308H461.287V821.22H463.639V823.644H463.687C463.959 822.796 464.407 822.124 465.031 821.628C465.671 821.132 466.447 820.884 467.359 820.884H467.527ZM469.607 822.54C470.759 821.42 472.207 820.86 473.951 820.86C475.695 820.86 477.143 821.42 478.295 822.54C479.447 823.66 480.023 825.068 480.023 826.764C480.023 828.46 479.447 829.868 478.295 830.988C477.143 832.108 475.695 832.668 473.951 832.668C472.207 832.668 470.759 832.108 469.607 830.988C468.455 829.868 467.879 828.46 467.879 826.764C467.879 825.068 468.455 823.66 469.607 822.54ZM476.519 824.148C475.863 823.492 475.007 823.164 473.951 823.164C472.895 823.164 472.031 823.492 471.359 824.148C470.703 824.804 470.375 825.676 470.375 826.764C470.375 827.852 470.703 828.724 471.359 829.38C472.031 830.036 472.895 830.364 473.951 830.364C475.007 830.364 475.863 830.036 476.519 829.38C477.191 828.724 477.527 827.852 477.527 826.764C477.527 825.676 477.191 824.804 476.519 824.148ZM482.193 837.108V821.22H484.545V822.852H484.593C485.361 821.524 486.609 820.86 488.337 820.86C489.857 820.86 491.137 821.396 492.177 822.468C493.217 823.54 493.737 824.972 493.737 826.764C493.737 828.556 493.217 829.988 492.177 831.06C491.137 832.132 489.857 832.668 488.337 832.668C486.609 832.668 485.361 832.004 484.593 830.676H484.545V837.108H482.193ZM485.361 829.38C485.985 830.036 486.809 830.364 487.833 830.364C488.857 830.364 489.681 830.036 490.305 829.38C490.929 828.708 491.241 827.836 491.241 826.764C491.241 825.692 490.929 824.828 490.305 824.172C489.681 823.5 488.857 823.164 487.833 823.164C486.809 823.164 485.985 823.5 485.361 824.172C484.737 824.828 484.425 825.692 484.425 826.764C484.425 827.836 484.737 828.708 485.361 829.38ZM496.912 822.54C498.064 821.42 499.512 820.86 501.256 820.86C503 820.86 504.448 821.42 505.6 822.54C506.752 823.66 507.328 825.068 507.328 826.764C507.328 828.46 506.752 829.868 505.6 830.988C504.448 832.108 503 832.668 501.256 832.668C499.512 832.668 498.064 832.108 496.912 830.988C495.76 829.868 495.184 828.46 495.184 826.764C495.184 825.068 495.76 823.66 496.912 822.54ZM503.824 824.148C503.168 823.492 502.312 823.164 501.256 823.164C500.2 823.164 499.336 823.492 498.664 824.148C498.008 824.804 497.68 825.676 497.68 826.764C497.68 827.852 498.008 828.724 498.664 829.38C499.336 830.036 500.2 830.364 501.256 830.364C502.312 830.364 503.168 830.036 503.824 829.38C504.496 828.724 504.832 827.852 504.832 826.764C504.832 825.676 504.496 824.804 503.824 824.148ZM512.93 832.668C511.266 832.668 509.762 832.276 508.418 831.492L509.474 829.404C510.69 830.108 511.866 830.46 513.002 830.46C514.154 830.46 514.73 830.116 514.73 829.428C514.73 828.98 514.338 828.564 513.554 828.18L511.538 827.196C509.986 826.46 509.21 825.396 509.21 824.004C509.21 822.996 509.554 822.22 510.242 821.676C510.946 821.132 511.914 820.86 513.146 820.86C514.426 820.86 515.706 821.148 516.986 821.724L516.026 823.764C514.906 823.284 513.922 823.044 513.074 823.044C512.162 823.044 511.706 823.324 511.706 823.884C511.706 824.156 511.794 824.388 511.97 824.58C512.162 824.772 512.498 824.98 512.978 825.204L515.042 826.188C516.514 826.876 517.25 827.916 517.25 829.308C517.25 830.412 516.858 831.252 516.074 831.828C515.306 832.388 514.258 832.668 512.93 832.668ZM523.857 832.668C522.337 832.668 521.057 832.132 520.017 831.06C518.977 829.988 518.457 828.556 518.457 826.764C518.457 824.972 518.977 823.54 520.017 822.468C521.057 821.396 522.337 820.86 523.857 820.86C525.585 820.86 526.833 821.524 527.601 822.852H527.649V821.22H530.001V832.308H527.649V830.676H527.601C526.833 832.004 525.585 832.668 523.857 832.668ZM521.889 829.38C522.513 830.036 523.337 830.364 524.361 830.364C525.385 830.364 526.209 830.036 526.833 829.38C527.457 828.708 527.769 827.836 527.769 826.764C527.769 825.692 527.457 824.828 526.833 824.172C526.209 823.5 525.385 823.164 524.361 823.164C523.337 823.164 522.513 823.5 521.889 824.172C521.265 824.828 520.953 825.692 520.953 826.764C520.953 827.836 521.265 828.708 521.889 829.38ZM535.36 815.508V832.308H533.008V815.508H535.36Z" fill="white"/>
<path d="M169.716 815.508V832.308H167.172V815.508H169.716ZM175.622 815.508V832.308H173.078V815.508H175.622Z" fill="white"/>
<path d="M620.18 851.114H612.956V855.842H619.628V858.194H612.956V865.562H610.46V848.762H620.18V851.114ZM626.437 854.114C628.101 854.114 629.397 854.65 630.325 855.722C631.269 856.778 631.741 858.21 631.741 860.018V860.402H623.149C623.197 861.378 623.525 862.17 624.133 862.778C624.757 863.37 625.549 863.666 626.509 863.666C627.821 863.666 628.957 863.018 629.917 861.722L631.573 863.282C630.293 865.042 628.621 865.922 626.557 865.922C624.797 865.922 623.389 865.386 622.333 864.314C621.293 863.226 620.773 861.802 620.773 860.042C620.773 858.314 621.277 856.898 622.285 855.794C623.309 854.674 624.693 854.114 626.437 854.114ZM626.293 856.274C625.477 856.274 624.805 856.482 624.277 856.898C623.749 857.314 623.413 857.914 623.269 858.698H629.197C629.149 857.93 628.861 857.338 628.333 856.922C627.821 856.49 627.141 856.274 626.293 856.274ZM638.572 865.922C637.052 865.922 635.772 865.386 634.732 864.314C633.692 863.242 633.172 861.81 633.172 860.018C633.172 858.226 633.692 856.794 634.732 855.722C635.772 854.65 637.052 854.114 638.572 854.114C640.3 854.114 641.548 854.778 642.316 856.106H642.364V854.474H644.716V865.562H642.364V863.93H642.316C641.548 865.258 640.3 865.922 638.572 865.922ZM636.604 862.634C637.228 863.29 638.052 863.618 639.076 863.618C640.1 863.618 640.924 863.29 641.548 862.634C642.172 861.962 642.484 861.09 642.484 860.018C642.484 858.946 642.172 858.082 641.548 857.426C640.924 856.754 640.1 856.418 639.076 856.418C638.052 856.418 637.228 856.754 636.604 857.426C635.98 858.082 635.668 858.946 635.668 860.018C635.668 861.09 635.98 861.962 636.604 862.634ZM653.099 856.466H650.843V862.274C650.843 863.042 651.227 863.426 651.995 863.426H652.571V865.586H651.491C650.515 865.586 649.771 865.338 649.259 864.842C648.747 864.346 648.491 863.642 648.491 862.73V856.466H646.523V854.474H648.491V850.034H650.843V854.474H653.099V856.466ZM658.945 865.922C657.761 865.922 656.785 865.538 656.017 864.77C655.265 863.986 654.889 862.794 654.889 861.194V854.474H657.289V860.954C657.289 861.85 657.489 862.522 657.889 862.97C658.305 863.418 658.881 863.642 659.617 863.642C661.473 863.642 662.401 862.354 662.401 859.778V854.474H664.753V865.562H662.401V863.882H662.353C661.681 865.242 660.545 865.922 658.945 865.922ZM673.882 854.138V856.898H673.522C672.354 856.898 671.474 857.202 670.882 857.81C670.29 858.402 669.994 859.346 669.994 860.642V865.562H667.642V854.474H669.994V856.898H670.042C670.314 856.05 670.762 855.378 671.386 854.882C672.026 854.386 672.802 854.138 673.714 854.138H673.882ZM679.898 854.114C681.562 854.114 682.858 854.65 683.786 855.722C684.73 856.778 685.202 858.21 685.202 860.018V860.402H676.61C676.658 861.378 676.986 862.17 677.594 862.778C678.218 863.37 679.01 863.666 679.97 863.666C681.282 863.666 682.418 863.018 683.378 861.722L685.034 863.282C683.754 865.042 682.082 865.922 680.018 865.922C678.258 865.922 676.85 865.386 675.794 864.314C674.754 863.226 674.234 861.802 674.234 860.042C674.234 858.314 674.738 856.898 675.746 855.794C676.77 854.674 678.154 854.114 679.898 854.114ZM679.754 856.274C678.938 856.274 678.266 856.482 677.738 856.898C677.21 857.314 676.874 857.914 676.73 858.698H682.658C682.61 857.93 682.322 857.338 681.794 856.922C681.282 856.49 680.602 856.274 679.754 856.274ZM690.785 865.922C689.121 865.922 687.617 865.53 686.273 864.746L687.329 862.658C688.545 863.362 689.721 863.714 690.857 863.714C692.009 863.714 692.585 863.37 692.585 862.682C692.585 862.234 692.193 861.818 691.409 861.434L689.393 860.45C687.841 859.714 687.065 858.65 687.065 857.258C687.065 856.25 687.409 855.474 688.097 854.93C688.801 854.386 689.769 854.114 691.001 854.114C692.281 854.114 693.561 854.402 694.841 854.978L693.881 857.018C692.761 856.538 691.777 856.298 690.929 856.298C690.017 856.298 689.561 856.578 689.561 857.138C689.561 857.41 689.649 857.642 689.825 857.834C690.017 858.026 690.353 858.234 690.833 858.458L692.897 859.442C694.369 860.13 695.105 861.17 695.105 862.562C695.105 863.666 694.713 864.506 693.929 865.082C693.161 865.642 692.113 865.922 690.785 865.922Z" fill="white"/>
<path d="M134.363 848.762V865.562H131.819V848.762H134.363ZM140.269 848.762V865.562H137.725V848.762H140.269ZM146.175 848.762V865.562H143.631V848.762H146.175Z" fill="white"/>
<path d="M1024.47 898.174C1021.8 898.174 1019.63 897.366 1017.97 895.75C1016.31 894.134 1015.47 892.022 1015.47 889.414C1015.47 886.806 1016.31 884.694 1017.97 883.078C1019.63 881.462 1021.8 880.654 1024.47 880.654C1026.71 880.654 1028.69 881.27 1030.4 882.502L1028.87 884.686C1027.51 883.694 1026.01 883.198 1024.38 883.198C1022.59 883.198 1021.11 883.766 1019.94 884.902C1018.79 886.038 1018.21 887.542 1018.21 889.414C1018.21 891.286 1018.79 892.79 1019.94 893.926C1021.11 895.062 1022.59 895.63 1024.38 895.63C1026.01 895.63 1027.51 895.134 1028.87 894.142L1030.4 896.326C1028.69 897.558 1026.71 898.174 1024.47 898.174ZM1032.97 888.046C1034.12 886.926 1035.57 886.366 1037.32 886.366C1039.06 886.366 1040.51 886.926 1041.66 888.046C1042.81 889.166 1043.39 890.574 1043.39 892.27C1043.39 893.966 1042.81 895.374 1041.66 896.494C1040.51 897.614 1039.06 898.174 1037.32 898.174C1035.57 898.174 1034.12 897.614 1032.97 896.494C1031.82 895.374 1031.24 893.966 1031.24 892.27C1031.24 890.574 1031.82 889.166 1032.97 888.046ZM1039.88 889.654C1039.23 888.998 1038.37 888.67 1037.32 888.67C1036.26 888.67 1035.4 888.998 1034.72 889.654C1034.07 890.31 1033.74 891.182 1033.74 892.27C1033.74 893.358 1034.07 894.23 1034.72 894.886C1035.4 895.542 1036.26 895.87 1037.32 895.87C1038.37 895.87 1039.23 895.542 1039.88 894.886C1040.56 894.23 1040.89 893.358 1040.89 892.27C1040.89 891.182 1040.56 890.31 1039.88 889.654ZM1051.58 886.366C1052.86 886.366 1053.88 886.742 1054.63 887.494C1055.38 888.23 1055.76 889.398 1055.76 890.998V897.814H1053.41V891.406C1053.41 889.614 1052.56 888.718 1050.86 888.718C1048.89 888.718 1047.91 889.982 1047.91 892.51V897.814H1045.56V886.726H1047.91V888.406H1047.96C1048.73 887.046 1049.93 886.366 1051.58 886.366ZM1063.89 898.174C1062.1 898.174 1060.64 897.63 1059.5 896.542C1058.37 895.454 1057.8 894.03 1057.8 892.27C1057.8 890.51 1058.37 889.086 1059.5 887.998C1060.64 886.91 1062.1 886.366 1063.89 886.366C1065.29 886.366 1066.55 886.742 1067.69 887.494L1066.58 889.486C1065.69 888.926 1064.77 888.646 1063.82 888.646C1062.77 888.646 1061.91 888.99 1061.25 889.678C1060.61 890.35 1060.29 891.214 1060.29 892.27C1060.29 893.326 1060.61 894.198 1061.25 894.886C1061.91 895.558 1062.77 895.894 1063.82 895.894C1064.77 895.894 1065.69 895.614 1066.58 895.054L1067.69 897.046C1066.55 897.798 1065.29 898.174 1063.89 898.174ZM1071.96 881.014V897.814H1069.61V881.014H1071.96ZM1078.88 898.174C1077.7 898.174 1076.72 897.79 1075.96 897.022C1075.2 896.238 1074.83 895.046 1074.83 893.446V886.726H1077.23V893.206C1077.23 894.102 1077.43 894.774 1077.83 895.222C1078.24 895.67 1078.82 895.894 1079.56 895.894C1081.41 895.894 1082.34 894.606 1082.34 892.03V886.726H1084.69V897.814H1082.34V896.134H1082.29C1081.62 897.494 1080.48 898.174 1078.88 898.174ZM1091.01 898.174C1089.35 898.174 1087.85 897.782 1086.5 896.998L1087.56 894.91C1088.77 895.614 1089.95 895.966 1091.09 895.966C1092.24 895.966 1092.81 895.622 1092.81 894.934C1092.81 894.486 1092.42 894.07 1091.64 893.686L1089.62 892.702C1088.07 891.966 1087.29 890.902 1087.29 889.51C1087.29 888.502 1087.64 887.726 1088.33 887.182C1089.03 886.638 1090 886.366 1091.23 886.366C1092.51 886.366 1093.79 886.654 1095.07 887.23L1094.11 889.27C1092.99 888.79 1092.01 888.55 1091.16 888.55C1090.25 888.55 1089.79 888.83 1089.79 889.39C1089.79 889.662 1089.88 889.894 1090.05 890.086C1090.25 890.278 1090.58 890.486 1091.06 890.71L1093.13 891.694C1094.6 892.382 1095.33 893.422 1095.33 894.814C1095.33 895.918 1094.94 896.758 1094.16 897.334C1093.39 897.894 1092.34 898.174 1091.01 898.174ZM1100 881.254V884.134H1097.12V881.254H1100ZM1097.38 897.814V886.726H1099.73V897.814H1097.38ZM1103.73 888.046C1104.88 886.926 1106.33 886.366 1108.07 886.366C1109.82 886.366 1111.27 886.926 1112.42 888.046C1113.57 889.166 1114.15 890.574 1114.15 892.27C1114.15 893.966 1113.57 895.374 1112.42 896.494C1111.27 897.614 1109.82 898.174 1108.07 898.174C1106.33 898.174 1104.88 897.614 1103.73 896.494C1102.58 895.374 1102 893.966 1102 892.27C1102 890.574 1102.58 889.166 1103.73 888.046ZM1110.64 889.654C1109.99 888.998 1109.13 888.67 1108.07 888.67C1107.02 888.67 1106.15 888.998 1105.48 889.654C1104.83 890.31 1104.5 891.182 1104.5 892.27C1104.5 893.358 1104.83 894.23 1105.48 894.886C1106.15 895.542 1107.02 895.87 1108.07 895.87C1109.13 895.87 1109.99 895.542 1110.64 894.886C1111.31 894.23 1111.65 893.358 1111.65 892.27C1111.65 891.182 1111.31 890.31 1110.64 889.654ZM1122.34 886.366C1123.62 886.366 1124.64 886.742 1125.39 887.494C1126.14 888.23 1126.52 889.398 1126.52 890.998V897.814H1124.16V891.406C1124.16 889.614 1123.32 888.718 1121.62 888.718C1119.65 888.718 1118.67 889.982 1118.67 892.51V897.814H1116.32V886.726H1118.67V888.406H1118.72C1119.48 887.046 1120.69 886.366 1122.34 886.366Z" fill="white"/>
<path d="M325.567 881.014V897.814H323.023V881.014H325.567ZM341.889 881.014L335.793 897.814H333.465L327.369 881.014H330.249L334.593 894.262H334.665L339.009 881.014H341.889Z" fill="white"/>
<line opacity="0.5" x1="196.862" y1="-126.216" x2="196.862" y2="1713.65" stroke="white"/>
<line opacity="0.4" x1="1185.64" y1="898.314" x2="196.362" y2="898.314" stroke="white"/>
<line opacity="0.4" x1="1378.87" y1="866.062" x2="49.0553" y2="866.062" stroke="white"/>
<line opacity="0.4" x1="1046.54" y1="832.809" x2="56.1262" y2="832.809" stroke="white"/>
<line opacity="0.4" x1="1267.24" y1="798.555" x2="196.362" y2="798.555" stroke="white"/>
<rect opacity="0.7" y="58" width="196" height="1022" fill="#1A1E26"/>
</g>
<defs>
<clipPath id="clip0_1968_498">
<rect width="1920" height="1080" fill="white"/>
</clipPath>
</defs>
</svg>
